<svg id="Layer_1" data-name="Layer 1" xmlns="http://www.w3.org/2000/svg" viewBox="0 0 2760.56 2000"><defs><style>.cls-1{fill:#fff;}.cls-2{fill:#d1e5ff;}.cls-3{fill:#9bc1f9;}.cls-4{fill:#466eb6;}.cls-5{fill:#86b1f2;}.cls-6{fill:#f7cc7f;}.cls-7{fill:#f47458;}.cls-8{fill:#fae0b2;}.cls-9{fill:#fe978e;}.cls-10{fill:#ff7446;}.cls-11{fill:#001653;}.cls-12{fill:#957447;}.cls-13{fill:#f25c12;}.cls-14{fill:#e6a500;}.cls-15{fill:#021f6e;}.cls-16{fill:#021753;}.cls-17{fill:#5d70a2;}.cls-18{fill:#fcc332;}.cls-19{fill:#b5450e;opacity:0.6;}.cls-20{fill:#00424c;}.cls-21{fill:#f29913;}.cls-22{fill:#50bfa5;}.cls-23{fill:#100062;}.cls-24{fill:#0c004a;}.cls-25{fill:#fcb500;}.cls-26{fill:#fc9700;}.cls-27{fill:#f7a491;}.cls-28{fill:#184655;}.cls-29{fill:#355389;}.cls-30{fill:#f8a492;}.cls-31{fill:#3c8f7c;}.cls-32{fill:#fe875e;}.cls-33{fill:#13375b;}.cls-34{fill:#96d9c9;}</style></defs><rect class="cls-1" width="2760.56" height="2000" transform="translate(2760.56 2000) rotate(180)"/><path class="cls-2" d="M535.27,373C4.7,887.62,315.43,1869.86,315.43,1869.86l2095,4.27s390.37-698.71-13-1266.43C2025,83.45,942.05-21.6,535.27,373Z" transform="translate(0 0)"/><rect class="cls-3" x="351.74" y="372.98" width="645.17" height="1484.26" transform="translate(1348.65 2230.21) rotate(180)"/><rect class="cls-4" x="743.79" y="285.31" width="42.18" height="1572.36" transform="translate(1529.75 2142.97) rotate(180)"/><path class="cls-5" d="M743.83,285.33c0,4,.29,1571.7.29,1571.7H353.62V372Z" transform="translate(0 0)"/><path class="cls-3" d="M398.32,502.17l1.92,415.08a40.61,40.61,0,0,1,4.89-.3,39.39,39.39,0,0,1,39.31,39.21l216.71-26.67a39.4,39.4,0,0,1,34.58-39.27l-2-434.45a39.81,39.81,0,0,1-8.27.87,39.4,39.4,0,0,1-39.3-39.22l-216.69,46A39.38,39.38,0,0,1,398.32,502.17Zm15.2,10.73A55,55,0,0,0,443.23,476l191-40.58a54.72,54.72,0,0,0,44.51,35.91l1.83,407.2a54.65,54.65,0,0,0-32.85,37.32l-190.8,23.48a54.74,54.74,0,0,0-41.55-36.6Z" transform="translate(0 0)"/><path class="cls-3" d="M399,1258.56l.88,494.7h.07a39.39,39.39,0,0,1,39.39,39.32l56.62-.11a39.39,39.39,0,0,1,39.32-39.38V1253.53c-1.15.1-2.3.15-3.44.15a39.4,39.4,0,0,1-39.33-39.39l-57.5,5A39.39,39.39,0,0,1,399,1258.56Zm15.18,12a55.22,55.22,0,0,0,34.13-37.27l31.54-2.71a54.71,54.71,0,0,0,40.28,37V1740.1a54.81,54.81,0,0,0-37.18,37.25l-30.63.05A54.82,54.82,0,0,0,415,1740.22Z" transform="translate(0 0)"/><path class="cls-3" d="M560.52,1244.57V1752.9h.07A39.39,39.39,0,0,1,600,1792.29l46.25-.08a39.39,39.39,0,0,1,39.32-39.09l3.91-512.58c-1.15.1-2.3.15-3.44.15A39.39,39.39,0,0,1,646.69,1201l-50.16,4.32A39.4,39.4,0,0,1,560.52,1244.57Zm15.15,12.09a54.06,54.06,0,0,0,34.21-37.28l24-2.07a54.72,54.72,0,0,0,40.29,37.25l-3.71,485.56a55,55,0,0,0-37.18,37l-20.34,0a54.77,54.77,0,0,0-37.31-37.25Z" transform="translate(0 0)"/><ellipse class="cls-6" cx="654.66" cy="1072" rx="15.91" ry="30.86"/><path class="cls-7" d="M623.86,1061.14v24.33H657.2a56.2,56.2,0,0,0,1.53-13.24,56.78,56.78,0,0,0-1.07-11.09Z" transform="translate(0 0)"/><path class="cls-8" d="M600.9,1072c0,25.69,10.73,46.51,24,46.51s24-20.82,24-46.51-10.73-46.5-24-46.5S600.9,1046.32,600.9,1072Z" transform="translate(0 0)"/><ellipse class="cls-8" cx="618.44" cy="1072" rx="23.98" ry="46.5"/><path class="cls-9" d="M218.39,1887.84H2542.17c5.9,0,10.68-7,10.68-15.61s-4.78-15.61-10.68-15.61H218.39c-5.9,0-10.68,7-10.68,15.61S212.49,1887.84,218.39,1887.84Z" transform="translate(0 0)"/><path class="cls-10" d="M2269,1783.6s.16,1.5.16,4c0,7.49-1.46,24-13.16,36.17-15.61,16.24-15.7,36.44.79,39.89s55.81-1.1,55.81-1.1,8.89-15.45,2.82-56.71-9.6-86.52-9.6-86.52l-44.8-7Z" transform="translate(0 0)"/><path class="cls-11" d="M2260.26,1801.14s-16.62,22.56-20.51,32-3.05,32.81,0,35.22c26.87,21.22,77.83,2.13,77.83,2.13a304.37,304.37,0,0,0,5.27-34.66c1.77-19.1.77-36.89-5.27-36.89s-7.11,10-20.9,7.18S2274.4,1798.31,2260.26,1801.14Z" transform="translate(0 0)"/><path class="cls-1" d="M2321.81,1845.31c-10.36,4-24.43,8.78-37.51,10.65-14,2-32.75-4.23-46.93-10.47-.74,10,.32,21.21,2.38,22.84,26.87,21.22,77.83,2.13,77.83,2.13S2320,1859.8,2321.81,1845.31Z" transform="translate(0 0)"/><path class="cls-12" d="M2321.81,1845.31c-38.56,11.58-45.65,13.64-84.44.18a117.58,117.58,0,0,0,20.28,8.57c14.9,4.62,23.7,4.22,33,2.13A142.54,142.54,0,0,0,2321.81,1845.31Z" transform="translate(0 0)"/><path class="cls-13" d="M1820.79,1081.7c11,4.15,25.65,10.3,25.65,10.3,1.89-4.55-34.52-12.33-39.62-23.41-2.74-5.93,41.78,15.91,44.87,13.3,1.28-1.08-50.35-17.89-48-21.94,2-3.41,54.29,15,54.58,12.47.4-3.55-45.27-12.71-41.18-17.81,2.09-2.61,57.52,12.38,63.5,13.25,7.32,0-19.16-18-10.14-20.39,12.25-3.27,43,32,45.41,32.5,7,1.44,66.26,8.7,95.29-10.29,23.44-15.33,46.19-38.92,51.76-59.22,5.46-19.91,13-48.35,6.56-70.28,26.41-4,52-4.95,78.83-1.74,1.63,32.94-37.81,163.47-54.3,174.21-36.28,23.63-101,17.85-146.64,14.09-36.78-3-72.8-10.27-105.93-27.08-7.4-3.76-17.32-8-23-14.51A2.16,2.16,0,0,1,1820.79,1081.7Z" transform="translate(0 0)"/><path class="cls-14" d="M2086,829.61c-19.65,20.3-39.5,141.93-32.2,170.92,12.62,23.55,69.73,27.61,88.2,38.78,42.61-17.51,13.42-96.08,13.42-96.08l15.53-153S2123.43,790.94,2086,829.61Z" transform="translate(0 0)"/><path class="cls-10" d="M2139.72,1756.4a46.73,46.73,0,0,1-14.84,50.5,78.54,78.54,0,0,1-17.88,11c-26.1,11.41-59.91,8.84-64.62,32.28s165.5-6.58,165.5-6.58-11.81-57-12.57-66.55,1-44.61,1-44.61l-65.74-4.72Z" transform="translate(0 0)"/><path class="cls-11" d="M2201,1803.29s2.08,9,6.85,24.4a66.6,66.6,0,0,1,1.79,29.8s-159.43,7.55-165.88,2.5-3.14-23.43-1.51-25,21.87-7.1,32.24-13.5,45.82-30.62,57.79-29.64,17.5,9.82,40.24,10.83S2195.32,1798.88,2201,1803.29Z" transform="translate(0 0)"/><path class="cls-1" d="M2043.73,1860c6.45,5,165.88-2.5,165.88-2.5a66.78,66.78,0,0,0,.16-21.24c-83.22,15.41-167.55-1.31-167.55-1.31C2040.59,1836.56,2037.28,1854.94,2043.73,1860Z" transform="translate(0 0)"/><path class="cls-12" d="M2209.77,1836.25c-56.84,11.35-119.84,9-167.55-1.31,86.78,13.1,156.75,3,151.91,3.44Z" transform="translate(0 0)"/><path class="cls-15" d="M2332.89,1204c27.36,100-6.6,548.69-6.6,548.69l-81.89-5.6s-18.63-446.34-32.15-459.85c-3.95-4-8.2-2.7-11.46-.46a17.81,17.81,0,0,0-6.78,9.51c-8.42,27.54-56.59,187.85-46.88,223,10.63,38.44,58.08,244.37,58.08,244.37l-68.71,2.74s-94.21-157.32-94.21-267.15,15.32-255.41,59.84-314.65c20.26-27,120-47.81,120-47.81S2324.35,1172.74,2332.89,1204Z" transform="translate(0 0)"/><path class="cls-16" d="M2184.89,1763.41s-47.44-219.57-58.08-260.55c-7.72-29.77,21.16-143.94,37.55-204.23a26.33,26.33,0,0,1,41.51-13.92h0s-69.37,196.08-58.74,234.52,58.08,244.37,58.08,244.37l-68.71,2.74s-.18-.29-.5-.84Z" transform="translate(0 0)"/><path class="cls-16" d="M2315.9,1183.22c8.78,6.87,15.13,13.93,17,20.76,27.36,100-6.6,548.69-6.6,548.69l-20.28-1.38C2307.15,1735.06,2336.55,1312.75,2315.9,1183.22Z" transform="translate(0 0)"/><path class="cls-16" d="M2086.4,1211.37a152,152,0,0,1,15.73-26.82,43.82,43.82,0,0,1,10-9.13c11.39,5.82,27.13,12.16,48.9,18.85,65.65,20.19,136.42,9.43,165.83-.81a28.35,28.35,0,0,1,6,10.52c2.38,8.68,4.29,20,5.8,33.38-14.68,10.92-100,37.3-177.67,12.59C2111.74,1234.27,2093.37,1224.77,2086.4,1211.37Z" transform="translate(0 0)"/><path class="cls-17" d="M2326.25,1786.64c-21,6.82-71.48,5.13-83.54,0-11.12-4.72-11.87-46.08,0-48.33,16.68-3.15,64-2.8,83.54,0C2338.22,1740,2337.75,1782.91,2326.25,1786.64Z" transform="translate(0 0)"/><path class="cls-17" d="M2201.73,1768.17c-21,6.81-71.49,5.12-83.55,0-11.12-4.73-11.87-46.09,0-48.34,16.68-3.15,64-2.8,83.55,0C2213.69,1721.54,2213.22,1764.44,2201.73,1768.17Z" transform="translate(0 0)"/><path class="cls-18" d="M2233,786.77s68.29-3.51,96.2,29.56,25.63,380.55,14.34,390.24-108.35,39-185.44,16.17-82-54.12-82-54.12,20.51-233.68,20.51-297.55S2159,769.58,2233,786.77Z" transform="translate(0 0)"/><path class="cls-14" d="M2293.25,1138.73c6-16.78-.43-70.14-7.29-108.75-5.38,1-10.55,2.25-15.43,3.66-8.25-25.54-15.52-91.82-15.77-133.48-.46-78.16,39.12-100.89,39.12-100.89,7.84-1.79,20.38,5.59,40,26,22.66,62,17.92,350.32,7.3,359.43-4.53,3.89-13.39,28.26-36.22,33.1C2299,1194.5,2287.67,1154.24,2293.25,1138.73Z" transform="translate(0 0)"/><path class="cls-14" d="M2238.9,787.49c14.81,13.61,16,13.87.57,31.73s-66.32,38.16-73.59,34.73c-18-8.51-1.25-36.93,10.75-57.37C2180.38,790.2,2224.09,773.87,2238.9,787.49Z" transform="translate(0 0)"/><path class="cls-13" d="M2172.71,736s-4,94,0,98.15,61.14-15.78,66.13-27.45S2218,625.05,2218,625.05Z" transform="translate(0 0)"/><path class="cls-19" d="M2171,798c10.1-1.82,18.8-4.39,21.35-7.28,23.32-26.33,5.85-69.07,7.68-80.18,3.65-22.12,11.07-40.39,7.35-59.46L2172.71,736S2171.27,770,2171,798Z" transform="translate(0 0)"/><path class="cls-20" d="M1866.26,842.86c-3.89,9.79,4.19,19.29,12.65,15.08a9.13,9.13,0,0,0,4.33-4.84c3.9-9.8-4.19-19.31-12.66-15.08A9.11,9.11,0,0,0,1866.26,842.86Z" transform="translate(0 0)"/><path class="cls-20" d="M1871.5,847.57l2.89,4.06,1.75-4.86c2.29-6.33,21.7-62.24.27-75-6.33-3.77-12.3-2.55-16.37,3.3C1850.67,788.58,1853.58,822.43,1871.5,847.57Zm-7.19-68.48c2-2.84,4.43-3.73,7.44-2.66a12.26,12.26,0,0,1,2.16,1c13,7.73,4.8,43.37-1.08,61.72C1858.51,815.93,1857.93,788.26,1864.31,779.09Z" transform="translate(0 0)"/><path class="cls-20" d="M1874.21,844.46l4.47,1a57.21,57.21,0,0,0,12.08,1.29c19.9,0,37.27-10.28,41.47-22.15,2.24-6.31.45-12.31-4.89-16.47-17.84-13.87-47,27.47-50.3,32.24Zm10.22-4.46c8.34-11.09,23.8-28.39,34.62-28.39a8.32,8.32,0,0,1,5.24,1.75c3.15,2.46,4.1,5.34,2.87,8.8C1923.83,831.57,1905.6,842.54,1884.43,840Z" transform="translate(0 0)"/><rect class="cls-18" x="1705.19" y="848.83" width="321.91" height="242.91" rx="26.63" transform="translate(3732.28 1940.56) rotate(180)"/><path class="cls-21" d="M1726.25,848.83h100.61v242.91H1726.25c-11.63,0-21.06-15.08-21.06-33.67V882.49C1705.19,863.9,1714.62,848.83,1726.25,848.83Z" transform="translate(0 0)"/><path class="cls-20" d="M1917.35,848.83h7.94c42.94,77.52,16.63,213.3,10.16,242.91h-6.2c4.44-20,35.12-167.64-11.53-242.2A5.29,5.29,0,0,1,1917.35,848.83Z" transform="translate(0 0)"/><path class="cls-20" d="M1768.88,1090.82a7.11,7.11,0,0,1,.06.92h-5.89c-17.32-138.4,1.8-211.61,14.71-242.91H1785C1773.29,875,1750.76,947.12,1768.88,1090.82Z" transform="translate(0 0)"/><rect class="cls-22" x="2239.76" y="1210.41" width="214.29" height="143.94" rx="6.87" transform="translate(4693.81 2564.77) rotate(180)"/><rect class="cls-1" x="2247.94" y="1226.99" width="181.5" height="110.78" transform="translate(4677.38 2564.77) rotate(180)"/><rect class="cls-21" x="2235.18" y="1250.71" width="19.14" height="63.34" rx="3.88" transform="translate(4489.5 2564.77) rotate(180)"/><path class="cls-13" d="M2309.72,1138.73c-13.51,41.11,34.06,130,14.74,158.48s-9.6,58.34,13.81,73.15,52.52-5.95,50.17-17.23-8.66-41.63-11.55-55.51,51.57-125.08,13.24-192.52c-22.75-40,10.88-108.89-6.88-153.39-15.9,29.64-91.18,11.12-86.86,43.64C2303.26,1023.13,2317.31,1115.62,2309.72,1138.73Z" transform="translate(0 0)"/><path class="cls-10" d="M2139.17,638.52s-9.81,33.75-9.81,61.43.66,75.6,20.26,75.6,47.71-5.4,54.24-44.55,0-82.35-19.6-92.48S2139.17,638.52,2139.17,638.52Z" transform="translate(0 0)"/><path class="cls-23" d="M2146.82,663.46c5.27-2.18,10.73,2.53,9.72,8.3-1.62,9.25-1.22,19.39,7.44,21.5,16.66,4.07,24.53,0,27.26,2.82s-7.88,17.83,0,20.65,12.12-24.09,19.08-24.09,8.48,38.8,0,47.56,1.21,20.65,12.42,20.65-1.41,14.08,13.68,18.77,27.22,4.69,32.06-14.39,0-29.73,0-29.73,15.43-18,11.51-35.87c-2.17-9.92-12.21-27.75-12.21-27.75s-7.78-21.17-9.9-33.37-32.16-24.41-52.73-26.6-10.28-14.7-27.54-14.7S2158,620,2158,620s-24.66-14.74-25.8-14c-14.35,8.74-2.42,24.09-2.42,24.09s-11.82,1.25-14.24,16.58,7.57,24.72,23.32,19.71C2141.82,665.41,2144.47,664.43,2146.82,663.46Z" transform="translate(0 0)"/><path class="cls-24" d="M2129.76,607.7a85.83,85.83,0,0,1,11.83,2.82C2149,614.63,2158,620,2158,620s32.18,9,50.62,17.8c23.64,11.26,44.35,22.56,58.26,31.47l.93,2.6s3.69,6.56,7.08,13.93c-14.64-3.2-43.23-14.23-75.12-29.42C2163.73,639.22,2127.73,609.42,2129.76,607.7Z" transform="translate(0 0)"/><path class="cls-10" d="M2199.39,690.53s8.33-15.34,15.74-6.78,3.53,44.75-7.87,44.75S2195.35,700.23,2199.39,690.53Z" transform="translate(0 0)"/><path class="cls-18" d="M2291.78,800s-23.23,17.68-22.81,95.83c.22,41.67,12.45,112.27,20,137.81,31.28-9.89,75.39-10.53,107.34,0,4.3-34.1-4.39-106.87-9.82-130.38C2373.15,845.44,2325,786.77,2291.78,800Z" transform="translate(0 0)"/><path class="cls-25" d="M2151.22,611.77c15.44-32.41,54.48-46,87.2-30.45s46.71,54.5,31.26,86.91c-.59,1.25-1.23,2.46-1.9,3.65l-118.2-56.34C2150.09,614.28,2150.62,613,2151.22,611.77Z" transform="translate(0 0)"/><path class="cls-18" d="M2175.79,626.56c.5-1.27,1-2.53,1.64-3.78A65.13,65.13,0,0,1,2248.08,587a66.71,66.71,0,0,0-9.66-5.64c-32.72-15.59-71.76-2-87.2,30.45-.6,1.25-1.13,2.51-1.64,3.77l118.2,56.34C2268,671.49,2175.79,626.56,2175.79,626.56Z" transform="translate(0 0)"/><path class="cls-26" d="M2096.8,592c1.25-2.64,62.8,22.46,102.15,41.22s70.22,36.09,69,38.73-66.52-12.68-105.86-31.44S2095.54,594.63,2096.8,592Z" transform="translate(0 0)"/><path class="cls-27" d="M933.15,1754.67s-13.91,13.76-14.22,18.81-1.23,59.13,4.44,64.18,22.36,8.63,17,14.3c-4,4.3-35.23,3.38-55.89,2.23-6-.34-13.6-49.12-16-56.29-3.47-10.41-14.43-36.61-11.28-43.87,1.54-3.53,11.42-8.06,21.78-14.84,10.9-7.13,21.33-23,21.33-23Z" transform="translate(0 0)"/><path class="cls-27" d="M1119.21,1788.46s-12.45,35.64-12.46,35.73c-.93,5.65-4.57,19.6-4.57,24.73,0,19.29,85.8-16.36,66.57-24.91-1.74-.78-7.2-7-7.78-13.52-.88-10.11,7.23-22.79,7.23-22.79Z" transform="translate(0 0)"/><path class="cls-28" d="M1112.07,1153l-44.42,51.82-43.55,271.1L887,1728.84s20.61,31.65,42.74,36.62l194.55-255.61,105.44-320-3.7-71.09Z" transform="translate(0 0)"/><path class="cls-29" d="M1223.26,1103l30.7,94.68s27,282,23.18,301.48c-9.38,47.39-104.14,305.5-104.14,305.5l-60.71-7.74,66.63-305.16-111-286.68Z" transform="translate(0 0)"/><path class="cls-30" d="M1518,780.69c-14.36,15.84-11.24,17.74-13.13,19.72-2.24,2.34-43.9,11.22-43.9,11.22s-122.6,27-129.28,28.22l-127.18-28.93-31,61.63s139.12,27.63,146.62,27.75,168.93-56.58,183.3-61.09c0,0,19.12,1.24,31.15,1.61s23.52-4.86,26.92-5.3a102.76,102.76,0,0,0,24.81-8.71c11.28-5.6-1.94-5.71-1.94-5.71s-22.73,6.43-22.93,4.47c-.15-1.51,12.47-4.26,25-10.32,3.23-1.56,6.41-3.11,9.32-4.55,7.63-3.8,7.52-9.8-1.09-7.16a82.24,82.24,0,0,0-11.46,4.33c-3.68,1.87-7.65,2.34-11,3.41-6.6,2.12-11.39,3.76-11.33,3.43s-1.53-1,1.84-2.75c4.06-2.12,13.65-4.62,19.38-8.23,3.25-2,10.29-5.88,10.29-5.88s11.75-7.68,10.6-9.27c-2.5-3.46-10.71,0-14.77,3.43-3.66.76-11,5-11,5s-16.64,5.13-17.4,2.68c-.31-1,8.28-6,16.85-11.9,9.07-6.29,15.3-11.27,14.43-13.29-1.38-3.22-9,1.25-9,1.25s-6.73,4-9.07,5.08c-2.73,1.32-11.23,4.63-11.23,4.63s-30.1,10.08-30.63,7.69.45-9,2.1-10.34,5.89-2,7.54-3.32,4.93-4.44,3.53-6.7-13.93.76-13.93.76S1522.14,776.12,1518,780.69Z" transform="translate(0 0)"/><path class="cls-31" d="M1248.12,817.46s-4.37,27-7.19,37c-2.34,8.31-18.8,42.46-18.8,42.46s-59-19.33-86.84-30.39c-33.8-13.41-72.89-42.31-70.35-46,7.12-10.26,18.62-22.25,34.84-26.3C1155.91,780.24,1248.12,817.46,1248.12,817.46Z" transform="translate(0 0)"/><path class="cls-22" d="M1254.93,1195.69c-56.26,22.21-188.5,9.39-188.5,9.39s8.38-57.74,11.34-96.74-21.86-100.68-32.34-207.76c-2.22-22.7,6.66-84,38.5-103.28,11.19-6.75,18-7.64,18-7.64.3,0,43.8-8.88,66-2,6.31,5.62,26,21.85,37.28,40.83,14.87,25.14,27.07,54.13,29.94,63.67,12.82,42.46,18.27,165.41,18.27,188.59S1254.93,1195.69,1254.93,1195.69Z" transform="translate(0 0)"/><path class="cls-27" d="M1205.24,828.45s-.09,0-.14.06c-21.62,6.72-103.17-38.61-103.17-38.61l0-.24,9.89-64.67s50.9-12,47.94,6.4,6.9,55.07,6.9,55.07c.32.33.74.71,1.27,1.16C1174.27,793.24,1193.93,809.47,1205.24,828.45Z" transform="translate(0 0)"/><path class="cls-32" d="M1159.78,731.38c3-18.37-47.94-6.38-47.94-6.38l-.82,5.38a29.81,29.81,0,0,0,5.52,9c11.37,12.15,29.14,19.45,44.51,20C1159.51,749.53,1158.57,738.91,1159.78,731.38Z" transform="translate(0 0)"/><path class="cls-27" d="M1102,625.56c-1.55-.56-12.49,80.05,8.26,102.24s61.18,29.44,75.68,12c16-19.32,15.24-106-17-128.79S1102,625.56,1102,625.56Z" transform="translate(0 0)"/><path class="cls-33" d="M1156.63,567.86c-24.93,5-41.08,20.19-47,26.64-11.32,1.33-26.71,7.54-42.6,33.68-19.55,32.14-5.11,67.75,17.63,85.22s22.49,37.75,22.49,37.75,38.54-19.78,34.8-50.25c-1.57-12.79-7.11-15.69-3-25.7,4.32-10.4,1.09-26.56,1.89-40.59l2.32-8.85s16.14-12.48,31.93-9S1188.63,561.38,1156.63,567.86Z" transform="translate(0 0)"/><path class="cls-27" d="M1145.29,683.6c.17,9.84-1.83,17.71-7.55,17.81s-7.33-3.76-12.06-17.64c-4.43-13,1-17.88,6.67-18S1145.13,673.77,1145.29,683.6Z" transform="translate(0 0)"/><path class="cls-31" d="M879.66,1738.85s29.05,89.24,41.6,93.66c3.33,1.17,22.33,6.39,25.34,13.55a3.24,3.24,0,0,1,.19.64c1,4.54-2.84,8.73-7.48,8.73H879.79s-8.45-40.31-11.79-58c0,0-17.69-43.27-15.72-47.2S879.66,1738.85,879.66,1738.85Z" transform="translate(0 0)"/><path class="cls-31" d="M1097.3,1855.29l9.82-31.46s20.64,8.84,31,7.37,30.46-7.37,30.46-7.37c41.17,13.73,74.91,20.4,68.77,31.46h-140Z" transform="translate(0 0)"/><path class="cls-30" d="M1521.53,916.94c-19,11.49-17.83,12.86-20.3,14.28-2.92,1.66-48-.31-48-.31s-132.76-5-139.92-5.47l-122.43-59.39-48.24,51s135,61.15,142.64,63.15,188.13-11.63,204.05-12.33c0,0,19.24,6,31.45,9.33s25.39,1.25,29,1.69a116.85,116.85,0,0,0,27.74-2.09c13-2.51-.45-5.93-.45-5.93s-25,.44-24.67-1.48c.25-1.48,13.91-.94,28.38-3.57,3.72-.67,7.39-1.36,10.75-2,8.84-1.72,10.34-7.46.82-7.1a91.81,91.81,0,0,0-12.9,1.27c-4.27.85-8.46.3-12.15.49-7.34.37-12.27.72-12.12.42s-1.71-1.3,2.22-2.14c4.72-1,15.22-1,22-3,3.87-1.13,12.11-3,12.11-3s9.77-5.84,9.71-6.62c-.36-4.19-7.34-2.2-12.41,0-4-.2-12.56,2-12.56,2s-18.42.73-18.53-1.8c0-1,10.58-1.69,21.54-5.17,12.54-4,15.65-9.62,15.29-11.85-.54-3.41-7.61-.21-7.61-.21s-9.68,4.41-12.37,4.9c-3.16.58-44.55,1.33-44.45-1.07s4.1-5.56,6.14-6.39,5.92-1.95,8-2.78,3.44-5,2.62-7.54-9.83-1.15-9.83-1.15S1527,913.62,1521.53,916.94Z" transform="translate(0 0)"/><path class="cls-34" d="M1178.94,971.65S1203,941.26,1211.43,929a524.76,524.76,0,0,0,30-50.8s-67.13-38.65-92.14-51.84c-91.79-48.38-89.66,23.77-85.39,39.79C1073.39,901.92,1178.94,971.65,1178.94,971.65Z" transform="translate(0 0)"/><path class="cls-32" d="M1519.54,814.19c7.94-4.53,14.08-11.62,12.06-20.56C1538.41,800.71,1529.83,813.77,1519.54,814.19Z" transform="translate(0 0)"/></svg>