<svg width="182" height="28" viewBox="0 0 182 28" fill="none" xmlns="http://www.w3.org/2000/svg">
<path d="M81.1592 11.7825H79.7383V16.8C79.2256 16.4911 78.4868 16.2263 77.5222 16.0057C76.6183 15.7939 75.8362 15.6879 75.1757 15.6879C73.5853 15.6879 72.2513 15.9748 71.1736 16.5485C70.5653 16.875 70.2611 17.3031 70.2611 17.8326C70.2611 18.5387 70.6261 18.8917 71.3561 18.8917C71.7994 18.8917 72.3773 18.7593 73.0899 18.4946C73.5505 18.3269 74.1415 18.1151 74.8628 17.8591C75.167 17.7532 75.7058 17.7002 76.4793 17.7002C77.9828 17.7002 79.1039 18.1724 79.8426 19.1168C80.1989 19.5669 80.3771 20.0965 80.3771 20.7054C80.3771 22.1087 79.508 23.212 77.7699 24.0151C77.0485 24.3505 76.362 24.5403 75.7102 24.5844C76.3359 25.2199 76.9312 25.5376 77.4961 25.5376C77.6786 25.5376 77.8742 25.5111 78.0827 25.4582L79.3994 27.6426C79.13 27.8808 78.5781 28 77.7438 28C77.0659 28 76.4923 27.7661 76.023 27.2983C75.771 27.0424 75.4147 26.5084 74.9541 25.6965C74.563 24.9992 74.2371 24.6462 73.9764 24.6374C72.3686 24.5932 71.1302 24.2976 70.2611 23.7504C69.7136 23.4061 69.4398 22.934 69.4398 22.3338C69.4398 21.5924 69.8744 21.2217 70.7434 21.2217C71.065 21.2217 71.7342 21.4777 72.751 21.9896C73.7765 22.4927 74.6195 22.7442 75.28 22.7442C76.601 22.7442 77.8394 22.4265 78.9952 21.791C79.5601 21.4821 79.8426 21.1026 79.8426 20.6525C79.8426 19.9817 79.3211 19.6463 78.2783 19.6463C77.9567 19.6463 76.9182 19.8846 75.1627 20.3612C74.1285 20.6437 73.494 20.7849 73.2594 20.7849C71.8776 20.7849 70.7391 20.1229 69.844 18.7991C69.4094 18.1636 69.1922 17.4796 69.1922 16.747C69.1835 15.2555 70.1872 14.2493 72.2035 13.7286C73.0291 13.5168 73.8069 13.4109 74.5369 13.4109C75.3712 13.4109 76.5532 13.6183 78.0827 14.0331V11.7825H67.7061V10.1939H81.1592V11.7825Z" fill="#444444"/>
<path d="M93.7651 11.7825H85.0831V13.9007C85.1178 13.9007 85.1526 13.9184 85.1874 13.9537C85.2221 13.989 85.2525 14.0066 85.2786 14.0066C85.2091 14.0066 85.17 14.0022 85.1613 13.9934C85.1613 13.9493 85.8087 13.808 87.1037 13.5697C87.5816 13.4815 88.0553 13.4374 88.5246 13.4374C90.48 13.4374 91.7358 13.9934 92.292 15.1054C92.6657 15.8468 92.8525 17.3428 92.8525 19.5934V24.6903C92.67 24.6197 91.9791 24.3329 90.7798 23.8298C90.7798 23.5474 90.7233 23.3664 90.6103 23.287C90.1497 23.5606 89.7717 23.768 89.4762 23.9092C88.5376 24.3593 87.4469 24.5844 86.2042 24.5844C84.4921 24.5844 83.1711 24.0372 82.2412 22.9428C81.7893 22.4132 81.5633 21.8219 81.5633 21.1688C81.5633 20.4362 81.9197 19.7081 82.6323 18.9844C84.0141 17.5811 85.7305 16.8794 87.7815 16.8794C89.0243 16.8794 90.0237 17.1707 90.7798 17.7532V16.5352C90.3974 16.041 90.0237 15.71 89.6587 15.5423C89.3024 15.3746 88.8114 15.2996 88.1856 15.3173C86.7864 15.3437 85.5046 15.6041 84.34 16.0983C83.8186 16.319 83.3102 16.5176 82.8148 16.6941V15.7144C82.9278 15.6173 83.0929 15.4717 83.3102 15.2775C83.3449 15.2334 83.3667 15.2069 83.3754 15.1981V11.7825H80.703V10.1939H93.7651V11.7825ZM90.7798 20.1626C90.7798 19.7743 90.3235 19.4257 89.411 19.1168C88.6549 18.8608 88.0249 18.7329 87.5208 18.7329C85.6871 18.7329 84.2183 19.4036 83.1146 20.7452C82.6714 21.2835 82.4498 21.7248 82.4498 22.069C82.6323 22.7133 83.3493 23.0355 84.6007 23.0355C86.2172 23.0355 87.6946 22.6251 89.033 21.8043C90.1975 21.0894 90.7798 20.5422 90.7798 20.1626Z" fill="#444444"/>
<path d="M113.593 11.7825H109.291L109.317 13.6359C110.499 14.0772 111.351 14.6553 111.872 15.3702C112.411 16.1116 112.68 17.1133 112.68 18.3754C112.68 20.1935 111.963 21.7557 110.529 23.0619C110.26 23.3091 109.847 23.6312 109.291 24.0284C108.604 24.5226 108.17 24.7697 107.987 24.7697C107.805 24.7697 106.966 23.9931 105.471 22.4397C106.393 22.3868 107.353 22.0867 108.352 21.5395C109.3 21.0276 110.104 20.4009 110.764 19.6596C111.477 18.8652 111.833 18.0224 111.833 17.131C111.833 16.2484 111.351 15.635 110.386 15.2908C109.917 15.1231 109.452 15.0481 108.991 15.0657C106.175 15.1805 104.45 16.8441 103.816 20.0567L101.143 18.9447C101.143 18.2033 101.426 17.3737 101.991 16.4558C102.199 16.1204 102.308 15.9307 102.317 15.8865C102.317 15.4717 101.73 15.2643 100.557 15.2643C99.0533 15.2643 97.8844 15.9351 97.0501 17.2766C96.6851 17.8679 96.5026 18.4593 96.5026 19.0506C96.5026 20.2862 97.0632 21.4556 98.1843 22.5589L100.661 24.9948C99.1489 24.4652 97.7454 23.6974 96.4505 22.6913C94.721 21.3497 93.8563 19.9111 93.8563 18.3754C93.8563 16.4337 94.821 14.9863 96.7503 14.0331C97.5933 13.6183 98.4624 13.4109 99.3575 13.4109C100.505 13.4109 101.652 13.7595 102.799 14.4567C103.234 14.7215 103.486 14.8627 103.555 14.8804C104.216 14.5891 104.941 14.2758 105.732 13.9404C106.149 13.7639 106.571 13.6448 106.997 13.583L107.023 11.7825H93.4652V10.1939H113.593V11.7825Z" fill="#444444"/>
<path d="M126.173 11.7825H117.491V13.9007C117.525 13.9007 117.56 13.9184 117.595 13.9537C117.63 13.989 117.66 14.0066 117.686 14.0066C117.617 14.0066 117.578 14.0022 117.569 13.9934C117.569 13.9493 118.216 13.808 119.511 13.5697C119.989 13.4815 120.463 13.4374 120.932 13.4374C122.888 13.4374 124.143 13.9934 124.7 15.1054C125.073 15.8468 125.26 17.3428 125.26 19.5934V24.6903C125.078 24.6197 124.387 24.3329 123.187 23.8298C123.187 23.5474 123.131 23.3664 123.018 23.287C122.557 23.5606 122.179 23.768 121.884 23.9092C120.945 24.3593 119.854 24.5844 118.612 24.5844C116.9 24.5844 115.579 24.0372 114.649 22.9428C114.197 22.4132 113.971 21.8219 113.971 21.1688C113.971 20.4362 114.327 19.7081 115.04 18.9844C116.422 17.5811 118.138 16.8794 120.189 16.8794C121.432 16.8794 122.431 17.1707 123.187 17.7532V16.5352C122.805 16.041 122.431 15.71 122.066 15.5423C121.71 15.3746 121.219 15.2996 120.593 15.3173C119.194 15.3437 117.912 15.6041 116.748 16.0983C116.226 16.319 115.718 16.5176 115.222 16.6941V15.7144C115.335 15.6173 115.5 15.4717 115.718 15.2775C115.752 15.2334 115.774 15.2069 115.783 15.1981V11.7825H113.111V10.1939H126.173V11.7825ZM123.187 20.1626C123.187 19.7743 122.731 19.4257 121.819 19.1168C121.062 18.8608 120.432 18.7329 119.928 18.7329C118.095 18.7329 116.626 19.4036 115.522 20.7452C115.079 21.2835 114.857 21.7248 114.857 22.069C115.04 22.7133 115.757 23.0355 117.008 23.0355C118.625 23.0355 120.102 22.6251 121.441 21.8043C122.605 21.0894 123.187 20.5422 123.187 20.1626Z" fill="#444444"/>
<path d="M141.138 11.7825H139.43L139.404 24.7168L137.032 23.6842V21.791C135.624 23.6356 134.242 24.5579 132.886 24.5579C132.026 24.5579 131.087 24.1916 130.07 23.4591C129.201 22.8325 128.48 22.0999 127.906 21.2615C127.229 20.273 126.894 19.311 126.903 18.3754C126.911 17.5193 127.376 16.5264 128.297 15.3967C129.332 14.1258 130.579 13.4903 132.039 13.4903C132.969 13.4903 133.903 13.8919 134.842 14.695C135.128 14.9333 135.858 15.7012 137.032 16.9986V11.7825H125.873V10.1939H137.032C137.032 8.3669 136.88 6.93712 136.575 5.90449C136.123 4.36879 135.115 2.54184 133.551 0.423641C133.516 0.405989 133.499 0.335382 133.499 0.21182C133.499 0.10591 133.525 0.0353034 133.577 0H136.067C138.309 2.51537 139.43 5.91332 139.43 10.1939H141.138V11.7825ZM136.406 17.8061C136.406 17.1177 136.037 16.5264 135.298 16.0322C134.637 15.5909 133.951 15.3702 133.238 15.3702C132.717 15.3702 132.065 15.6173 131.283 16.1116C129.579 17.1883 128.728 18.4593 128.728 19.9243C128.728 20.7275 128.941 21.4247 129.366 22.0161C129.836 22.678 130.448 23.009 131.205 23.009C131.987 23.009 132.821 22.6471 133.707 21.9234C134.324 21.4203 134.898 20.8025 135.428 20.07C136.08 19.1697 136.406 18.4151 136.406 17.8061Z" fill="#444444"/>
<path d="M155.256 11.7825H144.736V15.7674C145.683 14.7171 146.561 14.0419 147.369 13.7418C147.821 13.5742 148.329 13.4903 148.894 13.4903C151.015 13.4903 152.601 14.5494 153.653 16.6676C154.113 17.5943 154.343 18.5078 154.343 19.408C154.343 21.0496 153.679 22.5324 152.349 23.8563C151.906 24.2976 151.575 24.602 151.358 24.7697L149.22 23.4723C149.759 22.8987 150.372 22.1926 151.058 21.3541C151.832 20.4098 152.223 19.2183 152.232 17.7797C152.24 16.9236 152.049 16.2087 151.658 15.635C151.215 14.9642 150.589 14.6377 149.781 14.6553C149.033 14.673 148.234 14.9598 147.382 15.5158C146.617 16.0101 145.983 16.6014 145.479 17.2898C144.931 18.0312 144.658 18.7461 144.658 19.4345V24.6903L142.22 23.3664V11.7825H140.786V10.1939H142.22C142.22 7.59905 141.555 5.38377 140.225 3.54799C139.426 2.44476 138.687 1.66809 138.009 1.21797L140.643 1.19149C142.103 2.00347 143.263 3.7554 144.123 6.44728C144.532 7.72703 144.736 8.97589 144.736 10.1939H155.256V11.7825Z" fill="#444444"/>
<path d="M167.862 11.7825H159.18V13.9007C159.215 13.9007 159.249 13.9184 159.284 13.9537C159.319 13.989 159.349 14.0066 159.375 14.0066C159.306 14.0066 159.267 14.0022 159.258 13.9934C159.258 13.9493 159.905 13.808 161.2 13.5697C161.678 13.4815 162.152 13.4374 162.621 13.4374C164.577 13.4374 165.833 13.9934 166.389 15.1054C166.762 15.8468 166.949 17.3428 166.949 19.5934V24.6903C166.767 24.6197 166.076 24.3329 164.877 23.8298C164.877 23.5474 164.82 23.3664 164.707 23.287C164.246 23.5606 163.868 23.768 163.573 23.9092C162.634 24.3593 161.544 24.5844 160.301 24.5844C158.589 24.5844 157.268 24.0372 156.338 22.9428C155.886 22.4132 155.66 21.8219 155.66 21.1688C155.66 20.4362 156.016 19.7081 156.729 18.9844C158.111 17.5811 159.827 16.8794 161.878 16.8794C163.121 16.8794 164.12 17.1707 164.877 17.7532V16.5352C164.494 16.041 164.12 15.71 163.755 15.5423C163.399 15.3746 162.908 15.2996 162.282 15.3173C160.883 15.3437 159.601 15.6041 158.437 16.0983C157.915 16.319 157.407 16.5176 156.912 16.6941V15.7144C157.025 15.6173 157.19 15.4717 157.407 15.2775C157.442 15.2334 157.463 15.2069 157.472 15.1981V11.7825H154.8V10.1939H167.862V11.7825ZM164.877 20.1626C164.877 19.7743 164.42 19.4257 163.508 19.1168C162.752 18.8608 162.122 18.7329 161.618 18.7329C159.784 18.7329 158.315 19.4036 157.211 20.7452C156.768 21.2835 156.547 21.7248 156.547 22.069C156.729 22.7133 157.446 23.0355 158.697 23.0355C160.314 23.0355 161.791 22.6251 163.13 21.8043C164.294 21.0894 164.877 20.5422 164.877 20.1626Z" fill="#444444"/>
<path d="M181.706 11.7825H167.692V10.1939H181.706V11.7825ZM178.903 17.5943C178.903 15.4761 177.917 14.417 175.944 14.417C174.484 14.417 173.263 15.1937 172.281 16.747C171.412 18.1239 170.977 19.589 170.977 21.1423V24.9948L168.84 23.8563V13.9007H171.082V15.4761L172.242 14.5891C173.267 13.8036 174.349 13.4109 175.488 13.4109C177.035 13.4109 178.317 14.0199 179.333 15.2378C180.289 16.3852 180.767 17.7576 180.767 19.3551C180.767 21.3585 179.933 23.2826 178.265 25.1272L175.749 23.5253C176.531 22.7398 177.196 22.0161 177.743 21.3541C178.517 20.4186 178.903 19.1653 178.903 17.5943Z" fill="#444444"/>
<path d="M8.1 24.28C11.14 24.28 13.3 22.68 13.3 19.98C13.3 17.02 10.92 16.28 8.8 15.64C6.62 14.98 6.28 14.54 6.28 13.9C6.28 13.34 6.78 12.84 7.78 12.84C9.06 12.84 9.72 13.46 10.2 14.46L12.9 12.88C11.88 10.82 10.08 9.72 7.78 9.72C5.36 9.72 3.08 11.28 3.08 13.98C3.08 16.66 5.12 17.66 7.2 18.24C9.3 18.82 10.1 19.16 10.1 20.02C10.1 20.56 9.72 21.16 8.2 21.16C6.62 21.16 5.76 20.38 5.26 19.22L2.5 20.82C3.28 22.88 5.16 24.28 8.1 24.28Z" fill="#FF6800"/>
<path d="M23.7914 10H13.3914V13.08H16.9914V24H20.1914V13.08H23.7914V10Z" fill="#FF6800"/>
<path d="M31.0714 24.28C35.0914 24.28 38.3514 21.12 38.3514 17C38.3514 12.88 35.0914 9.72 31.0714 9.72C27.0514 9.72 23.7914 12.88 23.7914 17C23.7914 21.12 27.0514 24.28 31.0714 24.28ZM31.0714 21.16C28.7914 21.16 26.9914 19.5 26.9914 17C26.9914 14.5 28.7914 12.84 31.0714 12.84C33.3514 12.84 35.1514 14.5 35.1514 17C35.1514 19.5 33.3514 21.16 31.0714 21.16Z" fill="#FF6800"/>
<path d="M47.5131 24H50.9531L47.9731 18.86C49.5131 18.08 50.5531 16.52 50.5531 14.8C50.5531 12.14 48.4131 10 45.7531 10H40.1531V24H43.3531V19.4H44.8731L47.5131 24ZM43.3531 13H45.7531C46.6331 13 47.3531 13.78 47.3531 14.8C47.3531 15.82 46.6331 16.6 45.7531 16.6H43.3531V13Z" fill="#FF6800"/>
<path d="M55.6578 20.92V18.44H60.6578V15.4H55.6578V13.08H61.1578V10H52.4578V24H61.2578V20.92H55.6578Z" fill="#FF6800"/>
</svg>
