<svg width="82" height="82" viewBox="0 0 82 82" fill="none" xmlns="http://www.w3.org/2000/svg">
<path d="M52.7601 43.36H52.7701C52.7701 43.36 49.0001 48.89 45.8301 53C43.0901 56.55 42.2901 59.59 42.0601 61.06C41.9701 61.6 41.5301 62 41.0001 62C40.4701 62 40.0301 61.6 39.9401 61.06C39.7101 59.59 38.9101 56.55 36.1701 53C35.7501 52.45 35.3201 51.88 34.8901 51.3L45.2401 39L53.5701 29.12C54.4901 31.05 55.0001 33.21 55.0001 35.5C55.0001 38.4 54.1701 41.09 52.7601 43.36Z" fill="#48B564"/>
<path d="M45.2399 39L34.8899 51.3C32.0699 47.52 29.2299 43.36 29.2299 43.36H29.2399C28.9399 42.88 28.6699 42.39 28.4399 41.88L36.7599 32C35.9699 32.95 35.4999 34.17 35.4999 35.5C35.4999 38.54 37.9599 41 40.9999 41C42.7099 41 44.2399 40.22 45.2399 39Z" fill="#FCC60E"/>
<path d="M45.4 21.74L36.83 31.92L30.27 26.2C32.83 23.02 36.69 21 41 21C42.54 21 44.02 21.26 45.4 21.74Z" fill="#2C85EB"/>
<path d="M36.83 31.92L36.76 32L28.44 41.88C27.52 39.95 27 37.79 27 35.5C27 31.96 28.23 28.71 30.27 26.2L36.83 31.92Z" fill="#ED5748"/>
<path d="M45.2398 39C46.0298 38.05 46.4998 36.83 46.4998 35.5C46.4998 32.46 44.0398 30 40.9998 30C39.2898 30 37.7598 30.78 36.7598 32L45.3998 21.74C48.9898 22.96 51.9298 25.65 53.5698 29.12L45.2398 39Z" fill="#5695F6"/>
</svg>
