<svg width="666" height="273" viewBox="0 0 666 273" fill="none" xmlns="http://www.w3.org/2000/svg">
<g clip-path="url(#clip0_69_197)">
<path d="M650.549 272.15C650.54 272.17 650.531 272.214 650.521 272.242C431.407 271.607 909.082 272.064 13.492 271.426L13.3702 271.263C12.1846 269.735 2.84584 256.942 6.17855 237.092C8.55464 222.962 16.482 210.161 25.9718 199.383C53.4942 168.119 30.6103 129.94 59.6626 85.4636C70.6157 68.6961 84.6514 55.4938 101.523 46.0964C123.868 33.6198 150.654 28.4824 176.189 29.9111C182.148 30.2373 189.066 31.0348 194.892 32.4113C217.865 37.8358 235.658 46.3035 274.39 33.0767C309.408 21.0552 345.689 10.6369 382.271 4.7313C416.785 -0.924737 457.684 -3.1852 491.087 7.574C553.681 27.8219 542.604 61.1041 565.649 79.0997C568.688 81.4646 572.428 83.3059 576.791 85.3282C633.472 111.607 678.477 186.825 650.549 272.15Z" fill="#D2EAFF"/>
<g style="mix-blend-mode:multiply" opacity="0.5">
<g style="mix-blend-mode:multiply" opacity="0.5">
<path d="M222.186 118.028H181.744V236.922H222.186V118.028Z" fill="#D2EAFF"/>
</g>
</g>
<g style="mix-blend-mode:multiply" opacity="0.5">
<g style="mix-blend-mode:multiply" opacity="0.5">
<path d="M279.858 118.028H222.187V236.922H279.858V118.028Z" fill="#D2EAFF"/>
</g>
</g>
<g style="mix-blend-mode:multiply" opacity="0.5">
<g style="mix-blend-mode:multiply" opacity="0.5">
<path d="M279.859 160.223V157.859H253.873V118.028H251.517V157.859H224.205V118.028H221.855V157.859H181.739V160.223H221.855V198.575H181.739V200.939H221.855V236.922H224.212V200.939H251.526V236.922H253.883V200.939H279.869V198.575H253.883V160.223H279.859ZM251.52 198.575H224.205V160.223H251.52V198.575Z" fill="#D2EAFF"/>
</g>
</g>
<g style="mix-blend-mode:multiply" opacity="0.5">
<g style="mix-blend-mode:multiply" opacity="0.5">
<path d="M195.538 118.028H181.744V236.922H195.538V118.028Z" fill="#D2EAFF"/>
</g>
</g>
<g style="mix-blend-mode:multiply" opacity="0.5">
<g style="mix-blend-mode:multiply" opacity="0.5">
<path d="M214.223 118.028H203.163V121.243H214.223V118.028Z" fill="#D2EAFF"/>
</g>
</g>
<g style="mix-blend-mode:multiply" opacity="0.5">
<g style="mix-blend-mode:multiply" opacity="0.5">
<path d="M244.593 118.028H233.533V121.243H244.593V118.028Z" fill="#D2EAFF"/>
</g>
</g>
<g style="mix-blend-mode:multiply" opacity="0.5">
<g style="mix-blend-mode:multiply" opacity="0.5">
<path d="M274.045 118.028H262.984V121.243H274.045V118.028Z" fill="#D2EAFF"/>
</g>
</g>
<g style="mix-blend-mode:multiply" opacity="0.5">
<g style="mix-blend-mode:multiply" opacity="0.5">
<path d="M214.223 160.223H203.163V163.438H214.223V160.223Z" fill="#D2EAFF"/>
</g>
</g>
<g style="mix-blend-mode:multiply" opacity="0.5">
<g style="mix-blend-mode:multiply" opacity="0.5">
<path d="M244.593 160.223H233.533V163.438H244.593V160.223Z" fill="#D2EAFF"/>
</g>
</g>
<g style="mix-blend-mode:multiply" opacity="0.5">
<g style="mix-blend-mode:multiply" opacity="0.5">
<path d="M274.045 160.223H262.984V163.438H274.045V160.223Z" fill="#D2EAFF"/>
</g>
</g>
<g style="mix-blend-mode:multiply" opacity="0.5">
<g style="mix-blend-mode:multiply" opacity="0.5">
<path d="M214.223 200.939H203.163V204.154H214.223V200.939Z" fill="#D2EAFF"/>
</g>
</g>
<g style="mix-blend-mode:multiply" opacity="0.5">
<g style="mix-blend-mode:multiply" opacity="0.5">
<path d="M244.593 200.939H233.533V204.154H244.593V200.939Z" fill="#D2EAFF"/>
</g>
</g>
<g style="mix-blend-mode:multiply" opacity="0.5">
<path d="M274.045 200.939H262.984V204.154H274.045V200.939Z" fill="#D2EAFF"/>
</g>
<g style="mix-blend-mode:multiply" opacity="0.5">
<g style="mix-blend-mode:multiply" opacity="0.5">
<path d="M347.266 118.028H306.823V236.922H347.266V118.028Z" fill="#D2EAFF"/>
</g>
</g>
<g style="mix-blend-mode:multiply" opacity="0.5">
<g style="mix-blend-mode:multiply" opacity="0.5">
<path d="M354.956 118.028H347.266V236.922H354.956V118.028Z" fill="#D2EAFF"/>
</g>
</g>
<g style="mix-blend-mode:multiply" opacity="0.5">
<g style="mix-blend-mode:multiply" opacity="0.5">
<path d="M369.672 118.028H358.611V121.244H369.672V118.028Z" fill="#D2EAFF"/>
</g>
</g>
<g style="mix-blend-mode:multiply" opacity="0.5">
<g style="mix-blend-mode:multiply" opacity="0.5">
<path d="M404.937 118.028H370.149V236.922H404.937V118.028Z" fill="#D2EAFF"/>
</g>
</g>
<g style="mix-blend-mode:multiply" opacity="0.5">
<g style="mix-blend-mode:multiply" opacity="0.5">
<path d="M378.955 118.028H376.599V157.857H370.149V160.223H376.599V198.575H370.149V200.939H376.599V236.922H378.955V200.939H404.938V198.575H378.955V160.223H404.938V157.857H378.955V118.028Z" fill="#D2EAFF"/>
</g>
<g style="mix-blend-mode:multiply" opacity="0.5">
<path d="M349.284 118.028H346.928V157.857H306.823V160.223H346.928V198.575H306.823V200.939H346.928V236.922H349.284V200.939H370.149V198.575H349.284V160.223H370.149V157.857H349.284V118.028Z" fill="#D2EAFF"/>
</g>
</g>
<g style="mix-blend-mode:multiply" opacity="0.5">
<g style="mix-blend-mode:multiply" opacity="0.5">
<path d="M320.617 118.028H306.823V236.922H320.617V118.028Z" fill="#D2EAFF"/>
</g>
</g>
<g style="mix-blend-mode:multiply" opacity="0.5">
<g style="mix-blend-mode:multiply" opacity="0.5">
<path d="M339.302 118.028H328.242V121.243H339.302V118.028Z" fill="#D2EAFF"/>
</g>
</g>
<g style="mix-blend-mode:multiply" opacity="0.5">
<g style="mix-blend-mode:multiply" opacity="0.5">
<path d="M369.672 118.028H358.611V121.244H369.672V118.028Z" fill="#D2EAFF"/>
</g>
</g>
<g style="mix-blend-mode:multiply" opacity="0.5">
<g style="mix-blend-mode:multiply" opacity="0.5">
<path d="M399.125 118.028H388.063V121.243H399.125V118.028Z" fill="#D2EAFF"/>
</g>
</g>
<g style="mix-blend-mode:multiply" opacity="0.5">
<g style="mix-blend-mode:multiply" opacity="0.5">
<path d="M339.302 160.223H328.242V163.438H339.302V160.223Z" fill="#D2EAFF"/>
</g>
</g>
<g style="mix-blend-mode:multiply" opacity="0.5">
<g style="mix-blend-mode:multiply" opacity="0.5">
<path d="M399.125 160.223H388.063V163.438H399.125V160.223Z" fill="#D2EAFF"/>
</g>
</g>
<g style="mix-blend-mode:multiply" opacity="0.5">
<g style="mix-blend-mode:multiply" opacity="0.5">
<path d="M339.302 200.939H328.242V204.154H339.302V200.939Z" fill="#D2EAFF"/>
</g>
</g>
<g style="mix-blend-mode:multiply" opacity="0.5">
<g style="mix-blend-mode:multiply" opacity="0.5">
<path d="M399.125 200.939H388.063V204.154H399.125V200.939Z" fill="#D2EAFF"/>
</g>
</g>
<g style="mix-blend-mode:multiply" opacity="0.5">
<g style="mix-blend-mode:multiply" opacity="0.5">
<path d="M108.876 118.028H66.4004V236.922H108.876V118.028Z" fill="#D2EAFF"/>
</g>
</g>
<g style="mix-blend-mode:multiply" opacity="0.5">
<g style="mix-blend-mode:multiply" opacity="0.5">
<path d="M181.744 118.028H164.516V236.922H181.744V118.028Z" fill="#D2EAFF"/>
</g>
</g>
<g style="mix-blend-mode:multiply" opacity="0.5">
<g style="mix-blend-mode:multiply" opacity="0.5">
<path d="M164.516 118.028H124.073V236.922H164.516V118.028Z" fill="#D2EAFF"/>
</g>
</g>
<g style="mix-blend-mode:multiply" opacity="0.5">
<g style="mix-blend-mode:multiply" opacity="0.5">
<path d="M155.762 118.028H153.405V157.857H126.091V118.028H123.736V157.857H66.4043V160.223H123.736V198.573H66.4043V200.939H123.736V236.924H126.091V200.939H153.405V236.924H155.762V200.939H181.748V198.573H155.762V160.223H181.748V157.857H155.762V118.028ZM153.405 198.573H126.091V160.223H153.405V198.573Z" fill="#D2EAFF"/>
</g>
</g>
<g style="mix-blend-mode:multiply" opacity="0.5">
<g style="mix-blend-mode:multiply" opacity="0.5">
<path d="M97.4244 118.028H66.4004V236.922H97.4244V118.028Z" fill="#D2EAFF"/>
</g>
</g>
<g style="mix-blend-mode:multiply" opacity="0.5">
<g style="mix-blend-mode:multiply" opacity="0.5">
<path d="M116.109 118.028H105.049V121.243H116.109V118.028Z" fill="#D2EAFF"/>
</g>
</g>
<g style="mix-blend-mode:multiply" opacity="0.5">
<g style="mix-blend-mode:multiply" opacity="0.5">
<path d="M146.478 118.028H135.418V121.243H146.478V118.028Z" fill="#D2EAFF"/>
</g>
</g>
<g style="mix-blend-mode:multiply" opacity="0.5">
<g style="mix-blend-mode:multiply" opacity="0.5">
<path d="M175.93 118.028H164.87V121.243H175.93V118.028Z" fill="#D2EAFF"/>
</g>
</g>
<g style="mix-blend-mode:multiply" opacity="0.5">
<g style="mix-blend-mode:multiply" opacity="0.5">
<path d="M116.109 160.223H105.049V163.438H116.109V160.223Z" fill="#D2EAFF"/>
</g>
</g>
<g style="mix-blend-mode:multiply" opacity="0.5">
<g style="mix-blend-mode:multiply" opacity="0.5">
<path d="M146.478 160.223H135.418V163.438H146.478V160.223Z" fill="#D2EAFF"/>
</g>
</g>
<g style="mix-blend-mode:multiply" opacity="0.5">
<g style="mix-blend-mode:multiply" opacity="0.5">
<path d="M175.93 160.223H164.87V163.438H175.93V160.223Z" fill="#D2EAFF"/>
</g>
</g>
<g style="mix-blend-mode:multiply" opacity="0.5">
<g style="mix-blend-mode:multiply" opacity="0.5">
<path d="M116.109 200.939H105.049V204.154H116.109V200.939Z" fill="#D2EAFF"/>
</g>
</g>
<g style="mix-blend-mode:multiply" opacity="0.5">
<g style="mix-blend-mode:multiply" opacity="0.5">
<path d="M146.478 200.939H135.418V204.154H146.478V200.939Z" fill="#D2EAFF"/>
</g>
</g>
<g style="mix-blend-mode:multiply" opacity="0.5">
<path d="M175.93 200.939H164.87V204.154H175.93V200.939Z" fill="#D2EAFF"/>
</g>
<g style="mix-blend-mode:multiply">
<g style="mix-blend-mode:multiply">
<path d="M108.878 236.922V271.498L124.073 271.508V236.932L108.878 236.922ZM562.806 76.6533C562.015 75.9031 561.271 75.1317 560.565 74.3391C560.461 74.2249 560.36 74.1091 560.261 73.9933L560.148 74.1189L545.141 57.4672L548.405 53.8433C548.019 53.062 547.624 52.2727 547.221 51.4817L543.486 55.6291L530.038 40.7094H540.972C538.389 36.8921 535.424 33.3503 532.123 30.1394H283.085C279.897 31.2044 276.986 32.1944 274.383 33.0865C272.941 33.5791 271.528 34.0422 270.144 34.4761C269.592 34.65 269.045 34.8186 268.503 34.9816C261.322 37.1442 254.885 38.5207 248.994 39.3052C245.489 39.7749 241.96 40.0444 238.425 40.1125C237.463 40.1288 236.516 40.1288 235.582 40.1125C234.227 40.0919 232.899 40.0402 231.6 39.9576C217.992 39.1421 207.076 35.2866 194.895 32.4097C191.044 31.4996 185.74 30.6303 179.391 30.1264C178.878 30.084 178.358 30.0465 177.832 30.0106C177.306 29.9747 176.747 29.9388 176.191 29.9095C169.586 29.5432 162.963 29.6157 156.367 30.1264C142.84 31.1686 127.588 34.1874 112.495 40.6964H126.867L113.421 55.6161L103.751 44.8862C103.007 45.2777 102.264 45.6821 101.526 46.0931L111.757 57.4541L96.749 74.1058L83.0218 58.8763C82.396 59.4036 81.774 59.9396 81.1557 60.4844L94.0188 74.7566H67.4692C66.7774 75.6079 66.092 76.4745 65.4131 77.3563H90.3856L108.878 109.521V118.028H124.073V107.264L141.263 77.3579H336.463L354.956 109.521V118.028H370.149V107.264L387.341 77.3644H563.571C563.315 77.1247 563.058 76.8866 562.806 76.6533ZM522.772 40.7094L509.325 55.6242L495.881 40.7046L522.772 40.7094ZM489.443 40.7094L475.997 55.6291L462.551 40.7046L489.443 40.7094ZM456.113 40.7094L442.667 55.6291L429.22 40.7094H456.113ZM422.782 40.7094L409.336 55.6291L395.89 40.7094H422.782ZM389.454 40.7094L376.006 55.6291L362.56 40.7094H389.454ZM356.123 40.7094L342.676 55.6291L329.229 40.7094H356.123ZM321.367 40.7094L310.273 55.6291L299.177 40.7094H321.367ZM293.517 40.7094L280.07 55.6291L266.624 40.7094H293.517ZM260.188 40.7094L246.742 55.6291L233.296 40.7094H260.188ZM226.859 40.7094L213.41 55.6242L199.964 40.7046L226.859 40.7094ZM193.529 40.7094L180.083 55.6291L166.635 40.7046L193.529 40.7094ZM160.199 40.7094L146.753 55.6291L133.306 40.7094H160.199ZM130.087 40.8155L145.096 57.4672L130.087 74.1189L115.079 57.4672L130.087 40.8155ZM108.878 101.06L95.2499 77.3579H108.878V101.06ZM99.4872 74.7582L113.417 59.302L127.347 74.7582H99.4872ZM124.073 98.7964V77.3579H136.399L124.073 98.7964ZM132.818 74.7582L146.748 59.302L160.678 74.7582H132.818ZM148.409 57.4704L163.418 40.8187L178.426 57.4704L163.418 74.1222L148.409 57.4704ZM166.148 74.7582L180.08 59.302L194.01 74.7582H166.148ZM181.739 57.4704L196.748 40.8187L211.753 57.4704L196.748 74.1222L181.739 57.4704ZM199.481 74.7664L213.41 59.302L227.342 74.7582L199.481 74.7664ZM215.073 57.4786L230.082 40.8269L245.088 57.4786L230.082 74.1303L215.073 57.4786ZM232.815 74.7745L246.747 59.3183L260.672 74.7582L232.815 74.7745ZM248.407 57.4867L263.413 40.835L278.422 57.4867L263.413 74.1385L248.407 57.4867ZM266.148 74.7827L280.079 59.3264L294.009 74.7827H266.148ZM281.74 57.4949L296.614 40.9361L308.908 57.4623L296.614 73.9819L281.74 57.4949ZM298.793 74.7908L310.291 59.3346L321.784 74.7908H298.793ZM324.52 74.7908L311.658 57.503L324.122 40.7453H325.939L341.043 57.503L325.452 74.799L324.52 74.7908ZM354.978 101.093L341.35 77.3905H354.978V101.093ZM328.745 74.7582L342.676 59.302L356.609 74.7582H328.745ZM344.337 57.4704L359.344 40.8187L374.353 57.4704L359.344 74.1222L344.337 57.4704ZM370.161 98.8045V77.3579H382.481L370.161 98.8045ZM362.087 74.7664L376.017 59.3101L389.949 74.7664H362.087ZM377.679 57.4786L392.687 40.8269L407.696 57.4786L392.687 74.1303L377.679 57.4786ZM395.422 74.7745L409.352 59.3183L423.283 74.7745H395.422ZM411.014 57.4867L426.008 40.8106L441.016 57.4623L426.008 74.114L411.014 57.4867ZM428.736 74.7582L442.667 59.302L456.597 74.7582H428.736ZM444.328 57.4704L459.336 40.8187L474.343 57.4704L459.336 74.1222L444.328 57.4704ZM462.063 74.7582L475.995 59.302L489.925 74.7582H462.063ZM477.655 57.4704L492.664 40.8187L507.67 57.4704L492.664 74.1222L477.655 57.4704ZM495.395 74.7664L509.325 59.302L523.257 74.7582L495.395 74.7664ZM510.987 57.4786L526.091 40.7209H526.728L541.832 57.4786L526.403 74.5902L510.987 57.4786ZM529.556 74.7745L543.487 59.3183L557.417 74.7745H529.556ZM354.962 271.676L370.156 271.686V236.947H354.962V271.676Z" fill="#BDE3FF"/>
</g>
</g>
<g style="mix-blend-mode:multiply" opacity="0.5">
<g style="mix-blend-mode:multiply" opacity="0.5">
<path d="M369.674 121.244H358.612V118.028H354.956V236.922H370.15V118.028H369.674V121.244Z" fill="#D2EAFF"/>
</g>
</g>
<g style="mix-blend-mode:multiply" opacity="0.5">
<g style="mix-blend-mode:multiply" opacity="0.5">
<path d="M124.073 118.028H108.878V236.922H124.073V118.028Z" fill="#D2EAFF"/>
</g>
</g>
<path d="M658.825 228.854C658.674 231.583 658.451 234.331 658.154 237.097C656.853 249.017 654.303 260.767 650.548 272.15L628.35 272.08L612.344 271.73L374.067 271.548L357.322 271.537L102.845 271.336L86.0969 271.325L13.3702 271.268C12.1846 269.74 2.84584 256.947 6.17855 237.097C6.65261 234.302 7.33393 231.547 8.21682 228.854H658.825Z" fill="#A0D3F9"/>
<path d="M666 271.405H0V273H666V271.405Z" fill="black"/>
<g style="mix-blend-mode:multiply" opacity="0.5">
<g style="mix-blend-mode:multiply" opacity="0.5">
<path d="M369.529 200.939H358.469V204.154H369.529V200.939Z" fill="#D2EAFF"/>
</g>
</g>
<g style="mix-blend-mode:multiply" opacity="0.5">
<g style="mix-blend-mode:multiply" opacity="0.5">
<path d="M369.529 160.223H358.469V163.438H369.529V160.223Z" fill="#D2EAFF"/>
</g>
</g>
<g style="mix-blend-mode:multiply" opacity="0.3">
<path d="M535.713 59.9135V88.0143H534.157V52.6788H493.446V88.0143H488.049V48.4384H442.433V88.0143H440.37V59.9135H438.374V228.854H537.709V59.9135H535.713ZM535.713 213.815H523.314V202.543H524.394V200.153H501.028V202.543H502.108V213.814H497.055V202.541H498.135V200.152H474.769V202.541H475.849V213.814H470.798V202.541H471.876V200.152H448.51V202.541H449.59V213.814H440.37V189.839H535.706L535.713 213.815ZM535.713 144.384V187.163H518.659V163.714H491.636V187.163H487.327V151.839H446.618V187.171H440.37V140.259H535.706L535.713 144.384ZM535.713 137.589H529.427V99.5433H522.332V137.589H518.616V99.5433H511.521V137.589H507.805V99.5433H500.718V137.589H497.002V99.5433H489.906V137.589H486.19V99.5433H479.096V137.589H475.381V99.5433H468.287V137.589H464.57V99.5433H457.467V137.589H453.751V99.5433H446.657V137.589H440.37V90.6874H535.706L535.713 137.589Z" fill="#D2EAFF"/>
</g>
<path d="M425.005 214.284H351.057V252.976H425.005V214.284Z" fill="#C19E7A"/>
<path d="M425.004 214.284H406.632V252.976H425.004V214.284Z" fill="#B58A64"/>
<path d="M381.271 214.284H373.897V225.658H381.271V214.284Z" fill="#FEC786"/>
<path d="M350.824 242.156H351.29V214.518H406.632V214.049H350.824V242.156Z" fill="#1D1D1B"/>
<path d="M421.374 140.664L365.892 143.545L367.762 179.869L423.244 176.989L421.374 140.664Z" fill="#C19E7A"/>
<path d="M421.374 140.664L407.589 141.38L409.459 177.704L423.244 176.988L421.374 140.664Z" fill="#B58A64"/>
<path d="M388.562 142.369L383.029 142.656L383.579 153.334L389.112 153.047L388.562 142.369Z" fill="#FEC786"/>
<path d="M286.934 125.985C287.511 125.852 288.125 123.823 288.95 124.368C289.793 125.314 288.482 124.098 286.513 131.366C285.68 131.092 285.234 130.877 282.263 129.59C281.938 129.557 281.565 129.427 281.477 129.249L280.313 125.907C280.249 125.776 280.239 125.624 280.287 125.486C280.334 125.348 280.434 125.234 280.564 125.17C281.146 124.792 281.847 126.274 282.247 126.7C282.456 126.093 283.423 122.386 283.546 121.897C283.536 121.407 285.216 120.561 284.347 123.479C284.051 124.599 283.973 125.504 284.487 124.898C284.811 124.113 285.336 121.962 285.666 121.81C287.402 121.275 285.805 124.094 285.524 125.255C285.653 126.701 286.959 122.192 287.961 122.799C289.094 123.05 286.52 125.614 286.934 125.985Z" fill="#FE9F73"/>
<path d="M273.066 142.071L257.854 141.802L261.265 154.292C261.265 154.292 276.612 152.68 279.424 149.841C282.237 147.002 287.522 131.105 287.522 131.105C284.305 128.831 280.467 128.29 280.467 128.29L273.066 142.071Z" fill="#53A57E"/>
<path d="M280.431 128.215L272.984 142.078L274.181 144.051C274.186 144.059 274.192 144.066 274.2 144.071C274.207 144.077 274.216 144.081 274.225 144.083C274.234 144.085 274.243 144.086 274.252 144.084C274.261 144.083 274.27 144.08 274.278 144.075C274.286 144.07 274.293 144.064 274.298 144.056C274.304 144.049 274.308 144.04 274.31 144.031C274.312 144.022 274.312 144.013 274.311 144.004C274.31 143.995 274.306 143.986 274.302 143.978L273.147 142.073L280.511 128.373C280.959 128.432 284.529 128.957 287.485 131.167C287.497 131.178 287.513 131.184 287.53 131.184C287.547 131.184 287.563 131.178 287.575 131.167C287.586 131.152 287.591 131.133 287.588 131.115C287.586 131.097 287.576 131.08 287.561 131.069C284.386 128.694 280.509 128.246 280.47 128.243L280.431 128.215Z" fill="black"/>
<path d="M293.542 174.075L297.562 170.862L289.846 161.122L285.808 159.387L283.979 163.741L286.932 165.731L293.542 174.075Z" fill="#3A2645"/>
<path d="M303.827 214.042L318.265 207.81L301.26 168.084L286.822 174.316L303.827 214.042Z" fill="#646468"/>
<path d="M237.028 208.546H253.069V201.737H237.028V208.546Z" fill="#FFB357"/>
<path d="M228.875 202.916H253.552C254.934 202.916 256.055 201.791 256.055 200.403V198.203C256.055 196.815 254.934 195.689 253.552 195.689H228.875C227.493 195.689 226.372 196.815 226.372 198.203V200.403C226.372 201.791 227.493 202.916 228.875 202.916Z" fill="#F2932C"/>
<path d="M234.036 197.699L232.651 164.058C232.624 163.393 232.335 162.766 231.847 162.315C231.36 161.864 230.715 161.626 230.052 161.652L227.863 161.742C227.201 161.769 226.576 162.059 226.127 162.548C225.677 163.038 225.439 163.686 225.466 164.351L226.851 197.992C226.879 198.657 227.168 199.284 227.655 199.735C228.142 200.186 228.788 200.424 229.45 200.398L231.639 200.308C232.301 200.281 232.926 199.99 233.375 199.501C233.825 199.012 234.062 198.364 234.036 197.699Z" fill="#F2932C"/>
<path d="M264.082 157.547C263.343 167.289 262.677 179.493 264.732 187.37C264.732 187.37 246.452 192.485 235.462 188.725C235.462 188.725 239.132 153.008 247.389 145.506C249.938 143.195 266.02 132.075 264.082 157.547Z" fill="#7FC6A6"/>
<path d="M276.043 215.64L284.052 214.62L286.467 222.296L278.013 223.386L276.043 215.64Z" fill="#FE9F73"/>
<path d="M277.692 226.338C277.663 226.338 277.635 226.332 277.608 226.321C277.582 226.31 277.558 226.293 277.538 226.273C277.518 226.253 277.502 226.228 277.491 226.202C277.48 226.175 277.475 226.146 277.476 226.118V225.033C277.476 224.948 277.508 224.867 277.567 224.806C277.626 224.745 277.706 224.709 277.791 224.707H284.735L287.552 221.546L292.703 224.707H293.813C294.028 224.703 294.236 224.785 294.391 224.935C294.546 225.085 294.636 225.291 294.639 225.508C294.643 225.724 294.561 225.933 294.412 226.088C294.262 226.244 294.057 226.334 293.842 226.338H277.692Z" fill="#35182E"/>
<path d="M277.851 221.783C277.851 221.783 279.022 220.16 280.802 220.988C280.802 220.988 283.496 222.957 285.871 220.574L291.768 223.268C291.768 223.268 293.392 223.826 293.824 224.72H277.851V221.783Z" fill="#EF3A4C"/>
<path d="M277.911 221.783H277.792V224.705H277.911V221.783Z" fill="black"/>
<path d="M280.835 220.938C281.63 221.499 282.597 221.76 283.565 221.673L283.582 221.794C283.46 221.808 283.338 221.815 283.216 221.814C282.34 221.813 281.486 221.542 280.769 221.037L280.835 220.938Z" fill="black"/>
<path d="M278.599 223.546L279.352 224.069L279.286 224.17L278.532 223.647L278.599 223.546Z" fill="black"/>
<path d="M279.14 223.399L279.892 223.921L279.827 224.022L279.073 223.498L279.14 223.399Z" fill="black"/>
<path d="M277.417 225.935V225.119C277.416 224.997 277.463 224.878 277.548 224.79C277.633 224.702 277.75 224.652 277.872 224.65H293.842C294.07 224.653 294.287 224.747 294.447 224.911C294.606 225.076 294.694 225.296 294.691 225.526C294.692 225.652 294.665 225.777 294.613 225.892C294.561 226.007 294.486 226.11 294.391 226.193L294.314 226.1C294.396 226.028 294.461 225.94 294.505 225.841C294.55 225.742 294.573 225.634 294.573 225.526C294.575 225.328 294.499 225.138 294.362 224.997C294.225 224.856 294.038 224.775 293.842 224.772H277.872C277.827 224.773 277.783 224.782 277.742 224.8C277.7 224.818 277.663 224.844 277.632 224.876C277.601 224.908 277.576 224.946 277.56 224.988C277.543 225.03 277.535 225.074 277.536 225.119V225.935H277.417Z" fill="black"/>
<path d="M292.305 223.559C291.118 223.038 285.899 220.654 285.846 220.623L285.894 220.512C285.946 220.537 291.165 222.919 292.35 223.448C293.536 223.976 293.882 224.661 293.895 224.689L293.788 224.741C293.788 224.741 293.466 224.069 292.305 223.559Z" fill="black"/>
<path d="M254.973 215.64L262.983 214.62L262.061 222.296L253.605 223.386L254.973 215.64Z" fill="#FE9F73"/>
<path d="M253.284 226.338C253.256 226.337 253.228 226.332 253.201 226.32C253.175 226.309 253.151 226.293 253.131 226.273C253.111 226.252 253.095 226.228 253.084 226.201C253.074 226.175 253.068 226.146 253.068 226.118V225.033C253.068 224.948 253.101 224.867 253.16 224.806C253.219 224.745 253.299 224.709 253.383 224.707H260.328L263.144 221.546L268.296 224.707H269.405C269.595 224.703 269.781 224.766 269.929 224.885C270.077 225.004 270.18 225.172 270.217 225.359C270.241 225.476 270.239 225.597 270.212 225.713C270.184 225.829 270.131 225.937 270.057 226.031C269.983 226.124 269.889 226.2 269.783 226.253C269.677 226.306 269.56 226.335 269.441 226.338H253.284Z" fill="#35182E"/>
<path d="M253.444 221.783C253.444 221.783 254.614 220.16 256.394 220.988C256.394 220.988 259.088 222.957 261.463 220.574L267.361 223.268C267.361 223.268 268.986 223.826 269.416 224.72H253.444V221.783Z" fill="#EF3A4C"/>
<path d="M253.503 221.783H253.385V224.705H253.503V221.783Z" fill="black"/>
<path d="M256.428 220.938C257.223 221.499 258.19 221.76 259.158 221.673L259.176 221.794C259.054 221.808 258.932 221.814 258.809 221.814C257.933 221.813 257.079 221.542 256.361 221.037L256.428 220.938Z" fill="black"/>
<path d="M254.192 223.546L254.945 224.069L254.879 224.17L254.125 223.647L254.192 223.546Z" fill="black"/>
<path d="M254.733 223.399L255.486 223.921L255.42 224.022L254.666 223.498L254.733 223.399Z" fill="black"/>
<path d="M253.01 225.935V225.119C253.008 224.997 253.056 224.878 253.141 224.79C253.226 224.702 253.342 224.652 253.465 224.65H269.443C269.556 224.651 269.667 224.675 269.771 224.72C269.875 224.765 269.969 224.83 270.048 224.911C270.127 224.992 270.189 225.088 270.231 225.194C270.273 225.299 270.294 225.412 270.292 225.526C270.293 225.652 270.266 225.777 270.214 225.892C270.162 226.007 270.086 226.11 269.992 226.193L269.915 226.1C269.997 226.028 270.062 225.94 270.106 225.841C270.151 225.742 270.174 225.634 270.173 225.526C270.176 225.328 270.1 225.138 269.963 224.997C269.826 224.856 269.639 224.775 269.443 224.772H253.473C253.428 224.773 253.384 224.782 253.343 224.8C253.301 224.818 253.264 224.844 253.233 224.876C253.202 224.908 253.177 224.946 253.161 224.988C253.144 225.03 253.136 225.074 253.136 225.119V225.935H253.01Z" fill="black"/>
<path d="M267.898 223.559C266.711 223.038 261.492 220.654 261.44 220.623L261.488 220.512C261.541 220.537 266.758 222.919 267.943 223.448C269.129 223.976 269.475 224.661 269.488 224.689L269.381 224.741C269.381 224.741 269.059 224.069 267.898 223.559Z" fill="black"/>
<path d="M276.668 222.621L269.095 205.697L275.034 183.704C275.034 183.704 283.869 208.158 286.403 218.819C286.395 218.818 282.088 223.068 276.668 222.621Z" fill="#182B3A"/>
<path d="M238.878 196.078C238.807 196.021 238.739 195.962 238.67 195.903C233.756 191.692 234.665 183.803 240.363 180.745C241.643 180.059 242.979 179.548 244.261 179.421L268.281 177.01C268.281 177.01 274.583 176.358 275.905 182.269C276.651 185.602 272.391 199.37 268.949 209.376C266.815 215.588 264.401 221.608 264.401 221.608C264.401 221.608 256.583 221.794 252.735 219.036L257.933 195.668C257.933 195.668 243.926 200.253 238.878 196.078Z" fill="#223749"/>
<path d="M271.641 177.596C271.609 177.587 271.582 177.565 271.566 177.536C271.549 177.507 271.545 177.472 271.554 177.44C271.563 177.408 271.585 177.381 271.614 177.364C271.643 177.348 271.677 177.344 271.709 177.353C272.708 177.717 273.609 178.309 274.341 179.082C275.074 179.854 275.618 180.786 275.932 181.805C277.295 186.025 267.789 213.656 264.519 221.66L264.489 221.738H264.375C263.966 221.738 259.368 221.716 256.074 220.704C256.057 220.7 256.042 220.693 256.028 220.683C256.015 220.672 256.003 220.659 255.995 220.645C255.986 220.63 255.981 220.613 255.979 220.596C255.977 220.579 255.979 220.562 255.984 220.546C255.989 220.529 255.997 220.514 256.008 220.501C256.019 220.488 256.033 220.477 256.048 220.47C256.063 220.462 256.08 220.458 256.097 220.457C256.114 220.456 256.131 220.459 256.147 220.465C259.296 221.43 263.665 221.484 264.32 221.487C267.61 213.403 277.035 186.033 275.689 181.884C275.389 180.904 274.868 180.007 274.165 179.263C273.463 178.52 272.599 177.949 271.641 177.596Z" fill="#21111D"/>
<path d="M256.389 202.234H256.361C256.345 202.231 256.33 202.224 256.316 202.214C256.303 202.205 256.291 202.192 256.283 202.178C256.274 202.164 256.268 202.148 256.265 202.132C256.263 202.116 256.263 202.099 256.267 202.083L258.201 193.476C258.21 193.445 258.23 193.419 258.258 193.402C258.285 193.386 258.318 193.381 258.349 193.388C258.381 193.395 258.408 193.414 258.426 193.441C258.444 193.467 258.451 193.5 258.445 193.532L256.511 202.138C256.504 202.165 256.488 202.19 256.466 202.207C256.444 202.225 256.417 202.234 256.389 202.234Z" fill="#21111D"/>
<path d="M250.266 197.505C249.596 197.596 248.921 197.65 248.244 197.668C248.228 197.668 248.212 197.664 248.196 197.658C248.181 197.652 248.167 197.643 248.156 197.631C248.144 197.619 248.135 197.605 248.129 197.59C248.122 197.575 248.119 197.559 248.119 197.542C248.119 197.526 248.122 197.509 248.129 197.494C248.135 197.479 248.144 197.465 248.156 197.453C248.167 197.442 248.181 197.432 248.196 197.426C248.212 197.42 248.228 197.417 248.244 197.417C251.738 197.351 257.731 195.623 257.791 195.613C257.823 195.603 257.857 195.607 257.886 195.623C257.915 195.639 257.937 195.666 257.946 195.698C257.955 195.73 257.951 195.765 257.935 195.794C257.919 195.823 257.892 195.845 257.861 195.854C257.805 195.874 253.688 197.048 250.266 197.505Z" fill="#21111D"/>
<path d="M272.71 183.875C272.74 183.862 272.773 183.86 272.803 183.871C272.833 183.882 272.858 183.904 272.873 183.932C273.316 184.916 273.538 185.986 273.522 187.065C273.522 187.098 273.509 187.13 273.485 187.153C273.462 187.176 273.43 187.189 273.397 187.189C273.364 187.188 273.333 187.174 273.31 187.151C273.287 187.127 273.274 187.095 273.274 187.062C273.283 186.023 273.069 184.994 272.647 184.045C272.64 184.029 272.636 184.013 272.635 183.996C272.634 183.979 272.637 183.962 272.643 183.946C272.649 183.93 272.658 183.916 272.669 183.904C272.681 183.891 272.695 183.882 272.71 183.875Z" fill="#21111D"/>
<path d="M272.164 185.044C272.18 185.038 272.196 185.036 272.213 185.036C272.229 185.036 272.246 185.04 272.261 185.047C272.276 185.054 272.289 185.064 272.301 185.076C272.312 185.088 272.321 185.102 272.327 185.118C272.354 185.186 272.976 186.834 272.892 187.939C272.89 187.971 272.876 188.001 272.852 188.023C272.829 188.045 272.799 188.057 272.767 188.057H272.757C272.741 188.056 272.724 188.051 272.71 188.044C272.695 188.036 272.682 188.026 272.671 188.013C272.661 188.001 272.652 187.986 272.647 187.97C272.642 187.954 272.64 187.938 272.642 187.921C272.723 186.873 272.099 185.225 272.093 185.209C272.08 185.178 272.081 185.143 272.095 185.112C272.108 185.081 272.133 185.057 272.164 185.044Z" fill="#21111D"/>
<path d="M275.707 185.579C275.723 185.574 275.739 185.571 275.756 185.572C275.773 185.573 275.789 185.577 275.804 185.584C275.819 185.591 275.833 185.601 275.844 185.613C275.855 185.626 275.864 185.64 275.869 185.656C275.955 185.896 284.461 209.794 286.519 218.79L286.532 218.85L286.493 218.899C286.459 218.938 283.186 222.755 277.172 222.755C277.004 222.755 276.835 222.751 276.665 222.745C276.632 222.744 276.601 222.729 276.579 222.705C276.556 222.681 276.544 222.649 276.545 222.616C276.545 222.599 276.548 222.583 276.555 222.567C276.562 222.552 276.571 222.538 276.583 222.526C276.596 222.515 276.61 222.506 276.626 222.501C276.642 222.495 276.658 222.493 276.675 222.494C282.522 222.701 285.858 219.232 286.257 218.782C284.178 209.75 275.715 185.981 275.631 185.741C275.625 185.725 275.622 185.709 275.623 185.692C275.624 185.675 275.628 185.659 275.635 185.644C275.642 185.629 275.652 185.616 275.665 185.605C275.677 185.593 275.691 185.585 275.707 185.579Z" fill="#21111D"/>
<path d="M257.911 132.7L263.625 136.322L263.817 135.125C263.914 134.528 263.824 133.914 263.558 133.371C263.292 132.828 262.864 132.381 262.334 132.093C260.455 131.085 258.059 131.681 258.059 131.681C258.059 131.681 257.067 132.749 256.968 132.876C256.869 133.003 257.911 132.7 257.911 132.7Z" fill="#FE9F73"/>
<path d="M263.032 140.037L263.844 134.99L257.719 132.01L256.531 138.129L256.331 139.726C256.331 139.726 255.356 142.883 255.405 143.585C255.454 144.286 256.203 145.795 258.004 146.083C258.507 146.166 259.02 146.169 259.524 146.093C259.96 146.025 260.358 145.807 260.651 145.476C260.944 145.144 261.112 144.721 261.127 144.278L261.218 141.831C262.818 141.853 263.032 140.037 263.032 140.037Z" fill="#FE9F73"/>
<path d="M259.535 136.172C259.556 136.122 260.099 134.921 261.125 135.272C261.135 135.275 261.145 135.276 261.155 135.276C261.164 135.275 261.174 135.273 261.183 135.268C261.192 135.264 261.2 135.258 261.206 135.25C261.213 135.243 261.218 135.234 261.221 135.225C261.224 135.215 261.226 135.205 261.225 135.195C261.224 135.185 261.222 135.176 261.218 135.167C261.213 135.158 261.207 135.15 261.2 135.143C261.192 135.137 261.183 135.132 261.174 135.128C260.016 134.732 259.402 136.097 259.396 136.107C259.388 136.126 259.388 136.147 259.395 136.165C259.402 136.184 259.416 136.2 259.435 136.208C259.453 136.215 259.473 136.215 259.491 136.208C259.51 136.202 259.525 136.189 259.535 136.172Z" fill="#4C222E"/>
<path d="M263.692 136.244C263.692 136.244 263.437 135.419 262.97 135.487C262.96 135.49 262.949 135.491 262.938 135.49C262.927 135.488 262.917 135.484 262.908 135.479C262.898 135.473 262.891 135.465 262.885 135.456C262.879 135.447 262.875 135.436 262.873 135.425C262.871 135.414 262.872 135.403 262.875 135.393C262.878 135.382 262.883 135.372 262.89 135.364C262.897 135.356 262.906 135.349 262.916 135.344C262.926 135.34 262.937 135.337 262.948 135.337C263.544 135.249 263.825 136.162 263.836 136.2C263.839 136.21 263.84 136.22 263.839 136.23C263.838 136.24 263.836 136.25 263.831 136.259C263.826 136.267 263.82 136.275 263.812 136.282C263.804 136.288 263.795 136.293 263.786 136.296C263.775 136.299 263.764 136.3 263.754 136.298C263.743 136.296 263.733 136.292 263.724 136.286C263.708 136.277 263.697 136.262 263.692 136.244Z" fill="#4C222E"/>
<path d="M260.327 137.407C260.385 137.412 260.443 137.396 260.488 137.36C260.534 137.325 260.565 137.273 260.574 137.215C260.583 137.158 260.57 137.099 260.538 137.051C260.505 137.003 260.455 136.969 260.399 136.957C260.369 136.95 260.337 136.949 260.307 136.955C260.276 136.961 260.247 136.973 260.222 136.991C260.196 137.008 260.174 137.031 260.158 137.057C260.141 137.083 260.13 137.113 260.125 137.144C260.12 137.174 260.121 137.206 260.129 137.236C260.137 137.266 260.151 137.294 260.169 137.319C260.188 137.344 260.212 137.364 260.239 137.379C260.267 137.394 260.296 137.404 260.327 137.407Z" fill="black"/>
<path d="M262.749 137.567C262.779 137.573 262.81 137.573 262.841 137.568C262.871 137.562 262.9 137.55 262.925 137.532C262.95 137.515 262.972 137.492 262.989 137.466C263.005 137.44 263.016 137.411 263.021 137.38C263.026 137.35 263.025 137.318 263.018 137.288C263.01 137.258 262.997 137.23 262.978 137.205C262.959 137.181 262.936 137.16 262.909 137.145C262.882 137.13 262.853 137.12 262.822 137.116C262.792 137.11 262.761 137.11 262.731 137.116C262.7 137.122 262.672 137.134 262.646 137.151C262.621 137.169 262.599 137.191 262.582 137.217C262.566 137.243 262.555 137.272 262.55 137.303C262.545 137.334 262.546 137.365 262.554 137.395C262.561 137.425 262.574 137.453 262.593 137.478C262.612 137.502 262.635 137.523 262.662 137.538C262.689 137.554 262.718 137.563 262.749 137.567Z" fill="black"/>
<path d="M255.44 132.795C254.689 134.386 255.37 135.404 255.306 135.893C255.243 136.383 254.369 139.697 256.757 139.825L258.277 134.383L257.814 132.044L258.074 131.593C258.074 131.593 256.188 131.203 255.44 132.795Z" fill="#4C222E"/>
<path d="M257.183 137.976C257.45 138.018 257.723 137.979 257.967 137.865C258.212 137.752 258.418 137.568 258.558 137.336C258.699 137.105 258.768 136.838 258.757 136.567C258.746 136.297 258.656 136.035 258.497 135.816C258.338 135.597 258.119 135.431 257.866 135.337C257.613 135.243 257.338 135.227 257.075 135.29C256.813 135.353 256.575 135.493 256.392 135.692C256.209 135.891 256.089 136.14 256.047 136.407C256.018 136.585 256.025 136.767 256.067 136.942C256.109 137.118 256.184 137.283 256.29 137.429C256.396 137.575 256.529 137.698 256.682 137.792C256.836 137.886 257.006 137.948 257.183 137.976Z" fill="#FE9F73"/>
<path d="M257.748 136.619L257.828 136.73L257.816 136.595C257.813 136.49 257.788 136.387 257.743 136.292C257.697 136.198 257.632 136.114 257.552 136.047C257.362 135.916 257.13 135.862 256.902 135.897C256.892 135.898 256.884 135.904 256.878 135.911C256.872 135.919 256.87 135.929 256.871 135.939C256.872 135.944 256.873 135.949 256.876 135.953C256.878 135.957 256.882 135.961 256.886 135.964C256.889 135.967 256.894 135.969 256.899 135.971C256.903 135.972 256.909 135.972 256.913 135.972C257.121 135.941 257.332 135.99 257.506 136.107C257.622 136.202 257.7 136.336 257.724 136.484C257.633 136.394 257.518 136.332 257.393 136.307C257.268 136.282 257.139 136.295 257.021 136.343C256.911 136.392 256.821 136.476 256.765 136.582C256.709 136.687 256.689 136.809 256.709 136.927C256.72 137.051 256.772 137.167 256.855 137.258C256.938 137.35 257.049 137.412 257.17 137.435C257.175 137.435 257.18 137.435 257.185 137.434C257.19 137.433 257.194 137.431 257.198 137.428C257.202 137.425 257.206 137.421 257.208 137.416C257.21 137.412 257.212 137.407 257.212 137.402C257.214 137.392 257.211 137.382 257.205 137.374C257.2 137.366 257.191 137.361 257.181 137.359C257.076 137.34 256.98 137.286 256.909 137.206C256.837 137.126 256.794 137.025 256.785 136.918C256.767 136.816 256.784 136.711 256.832 136.62C256.88 136.529 256.956 136.456 257.05 136.414C257.172 136.366 257.308 136.36 257.434 136.397C257.56 136.434 257.671 136.512 257.748 136.619Z" fill="#F07162"/>
<path d="M261.143 143.634L261.21 141.825C261.21 141.825 258.697 141.923 257.814 139.705C257.814 139.705 257.435 142.74 261.143 143.634Z" fill="#F07162"/>
<path d="M261.104 138.834C261.105 138.842 261.109 138.85 261.115 138.855C261.12 138.861 261.128 138.865 261.136 138.866H261.148L262 138.728L262.049 136.854C262.05 136.848 262.05 136.842 262.049 136.837C262.047 136.831 262.045 136.826 262.041 136.821C262.037 136.817 262.033 136.813 262.027 136.811C262.022 136.808 262.017 136.807 262.011 136.807C262.005 136.807 261.999 136.808 261.994 136.811C261.989 136.813 261.984 136.817 261.981 136.821C261.977 136.826 261.974 136.831 261.973 136.837C261.971 136.842 261.971 136.848 261.973 136.854L261.925 138.664L261.136 138.793C261.127 138.794 261.118 138.799 261.112 138.807C261.106 138.814 261.103 138.824 261.104 138.834Z" fill="#F07162"/>
<path d="M257.49 137.806L256.873 137.633L256.204 140.137L257.083 140.354L257.49 137.806Z" fill="#FE9F73"/>
<path d="M264.422 133.75C264.991 132.462 263.836 132.224 263.836 132.224C263.836 132.224 264.395 130.353 262.576 130.64C260.757 130.927 257.568 130.337 256.404 131.8C255.239 133.263 258.259 134.471 258.259 134.471C258.259 134.471 263.854 135.04 264.422 133.75Z" fill="#4C222E"/>
<path d="M259.329 134.337C260.087 134.083 258.155 133.38 258.09 133.4C258.025 133.419 256.777 133.827 256.933 133.825C257.089 133.824 258.213 134.094 258.213 134.094L258.013 135.334C258.228 135.879 258.248 136.483 258.069 137.041C258.069 137.041 258.393 137.227 258.506 136.947C258.618 136.666 258.571 134.59 259.329 134.337Z" fill="#4C222E"/>
<path d="M260.852 139.48C260.722 139.682 260.729 139.92 260.868 140.01C261.008 140.099 261.226 140.01 261.355 139.807C261.485 139.605 261.477 139.367 261.338 139.277C261.198 139.188 260.982 139.281 260.852 139.48Z" fill="white"/>
<path d="M336.111 206.127H342.823V147.262H336.111V206.127Z" fill="#9E9DA2"/>
<path d="M332.86 254.347H346.075V195.482H332.86V254.347Z" fill="#3A2645"/>
<path d="M328.679 256.182H431.434C432.135 256.182 432.704 255.611 432.704 254.907V253.791C432.704 253.087 432.135 252.516 431.434 252.516H328.679C327.977 252.516 327.409 253.087 327.409 253.791V254.907C327.409 255.611 327.977 256.182 328.679 256.182Z" fill="#3A2645"/>
<path d="M287.4 254.347H328.771V223.692H287.4V254.347Z" fill="#3A2645"/>
<path d="M191.603 254.347H237.35V223.692H191.603V254.347Z" fill="#3A2645"/>
<path d="M316.966 271.405C327.994 271.405 336.934 262.424 336.934 251.346C336.934 240.268 327.994 231.288 316.966 231.288C305.937 231.288 296.997 240.268 296.997 251.346C296.997 262.424 305.937 271.405 316.966 271.405Z" fill="#1A1A1A"/>
<path d="M317.039 265.291C324.712 265.255 330.903 258.978 330.866 251.27C330.83 243.563 324.581 237.344 316.908 237.38C309.236 237.417 303.045 243.694 303.081 251.402C303.117 259.109 309.367 265.328 317.039 265.291Z" fill="#9E9DA2"/>
<g style="mix-blend-mode:multiply" opacity="0.5">
<g style="mix-blend-mode:multiply" opacity="0.5">
<path d="M309.186 239.783C307.509 242.497 306.81 245.706 307.205 248.875C307.601 252.044 309.067 254.981 311.359 257.195C313.651 259.409 316.63 260.767 319.799 261.041C322.968 261.315 326.134 260.49 328.77 258.702C327.677 260.469 326.206 261.969 324.462 263.091C322.718 264.213 320.747 264.93 318.691 265.189C316.636 265.447 314.55 265.241 312.584 264.586C310.618 263.93 308.824 262.842 307.331 261.4C305.838 259.958 304.686 258.199 303.957 256.252C303.229 254.305 302.943 252.219 303.121 250.147C303.298 248.075 303.935 246.069 304.985 244.275C306.034 242.482 307.47 240.947 309.186 239.783Z" fill="#9E9DA2"/>
</g>
</g>
<path d="M326.272 251.409C326.3 246.255 322.164 242.053 317.032 242.024C311.9 241.995 307.717 246.15 307.689 251.305C307.66 256.46 311.797 260.662 316.928 260.691C322.06 260.72 326.243 256.564 326.272 251.409Z" fill="#D8D9DD"/>
<g style="mix-blend-mode:screen" opacity="0.3">
<g style="mix-blend-mode:screen" opacity="0.3">
<path d="M311.813 243.58C310.632 245.377 310.107 247.53 310.326 249.672C310.545 251.814 311.496 253.814 313.016 255.333C314.536 256.851 316.533 257.795 318.667 258.004C320.802 258.213 322.942 257.674 324.726 256.479C323.969 257.634 322.965 258.606 321.788 259.324C320.61 260.042 319.289 260.488 317.919 260.63C316.549 260.772 315.164 260.606 313.866 260.145C312.567 259.684 311.387 258.939 310.41 257.963C309.434 256.988 308.685 255.807 308.219 254.505C307.753 253.203 307.581 251.814 307.715 250.438C307.849 249.061 308.287 247.732 308.995 246.546C309.704 245.36 310.666 244.347 311.813 243.58Z" fill="#D8D9DD"/>
</g>
</g>
<path d="M315.902 244.964C315.902 245.17 315.963 245.372 316.077 245.543C316.191 245.714 316.353 245.847 316.542 245.926C316.732 246.005 316.94 246.025 317.141 245.985C317.342 245.945 317.527 245.845 317.672 245.7C317.817 245.554 317.915 245.368 317.955 245.166C317.995 244.964 317.974 244.755 317.895 244.565C317.817 244.375 317.684 244.213 317.513 244.098C317.342 243.984 317.142 243.924 316.937 243.924C316.662 243.924 316.399 244.034 316.205 244.229C316.011 244.424 315.902 244.689 315.902 244.964Z" fill="#9E9DA2"/>
<path d="M315.902 257.686C315.902 257.892 315.963 258.093 316.076 258.264C316.19 258.436 316.352 258.569 316.541 258.648C316.731 258.727 316.939 258.748 317.14 258.708C317.341 258.668 317.526 258.569 317.671 258.423C317.816 258.277 317.915 258.092 317.955 257.89C317.995 257.688 317.974 257.479 317.896 257.288C317.817 257.098 317.684 256.936 317.513 256.821C317.343 256.707 317.142 256.646 316.937 256.647C316.663 256.647 316.399 256.756 316.205 256.951C316.011 257.146 315.902 257.41 315.902 257.686Z" fill="#9E9DA2"/>
<path d="M310.609 252.397C310.814 252.396 311.014 252.334 311.184 252.219C311.354 252.104 311.487 251.941 311.564 251.75C311.642 251.56 311.662 251.35 311.621 251.149C311.58 250.947 311.48 250.762 311.335 250.617C311.189 250.472 311.004 250.374 310.802 250.334C310.601 250.295 310.393 250.317 310.204 250.397C310.015 250.477 309.854 250.611 309.741 250.783C309.628 250.955 309.568 251.157 309.569 251.363C309.57 251.499 309.597 251.634 309.65 251.76C309.702 251.886 309.779 252 309.875 252.096C309.972 252.192 310.086 252.268 310.212 252.32C310.338 252.371 310.473 252.397 310.609 252.397Z" fill="#9E9DA2"/>
<path d="M323.273 252.338C323.478 252.337 323.679 252.275 323.849 252.16C324.018 252.044 324.15 251.881 324.228 251.691C324.305 251.5 324.325 251.291 324.284 251.089C324.243 250.887 324.143 250.702 323.997 250.558C323.852 250.413 323.666 250.315 323.465 250.276C323.264 250.237 323.055 250.258 322.866 250.338C322.678 250.418 322.516 250.553 322.404 250.725C322.291 250.896 322.231 251.098 322.232 251.304C322.234 251.58 322.345 251.843 322.54 252.037C322.735 252.231 322.999 252.339 323.273 252.338Z" fill="#9E9DA2"/>
<path d="M313.215 256.577C313.361 256.431 313.46 256.246 313.5 256.044C313.541 255.842 313.52 255.632 313.442 255.442C313.364 255.252 313.231 255.089 313.061 254.974C312.89 254.86 312.69 254.798 312.484 254.798C312.279 254.798 312.079 254.86 311.908 254.974C311.738 255.089 311.605 255.252 311.527 255.442C311.448 255.632 311.428 255.842 311.469 256.044C311.509 256.246 311.608 256.431 311.754 256.577C311.948 256.771 312.211 256.88 312.484 256.88C312.758 256.88 313.021 256.771 313.215 256.577Z" fill="#9E9DA2"/>
<path d="M322.129 247.543C322.275 247.398 322.374 247.212 322.414 247.01C322.455 246.808 322.435 246.599 322.356 246.408C322.278 246.218 322.145 246.055 321.975 245.941C321.804 245.826 321.604 245.765 321.398 245.765C321.193 245.765 320.993 245.826 320.822 245.941C320.652 246.055 320.519 246.218 320.441 246.408C320.362 246.599 320.342 246.808 320.383 247.01C320.423 247.212 320.522 247.398 320.668 247.543C320.862 247.737 321.125 247.846 321.398 247.846C321.672 247.846 321.935 247.737 322.129 247.543Z" fill="#9E9DA2"/>
<path d="M322.163 255.065C322.018 254.92 321.833 254.822 321.632 254.783C321.431 254.744 321.223 254.765 321.034 254.845C320.845 254.925 320.685 255.059 320.572 255.23C320.459 255.402 320.399 255.603 320.4 255.809C320.402 256.014 320.463 256.215 320.578 256.385C320.693 256.555 320.855 256.687 321.045 256.765C321.234 256.842 321.443 256.862 321.643 256.82C321.844 256.779 322.027 256.679 322.171 256.533C322.364 256.337 322.471 256.072 322.469 255.797C322.468 255.522 322.358 255.258 322.163 255.065Z" fill="#9E9DA2"/>
<path d="M313.168 246.114C313.023 245.968 312.839 245.869 312.638 245.828C312.437 245.787 312.228 245.808 312.038 245.886C311.849 245.965 311.687 246.098 311.572 246.27C311.458 246.441 311.397 246.642 311.397 246.848C311.397 247.054 311.458 247.256 311.572 247.427C311.687 247.598 311.849 247.731 312.038 247.81C312.228 247.889 312.437 247.909 312.638 247.868C312.839 247.828 313.023 247.728 313.168 247.582C313.361 247.387 313.47 247.123 313.47 246.848C313.47 246.573 313.361 246.309 313.168 246.114Z" fill="#9E9DA2"/>
<path d="M213.663 271.405C222.558 271.405 229.77 264.161 229.77 255.225C229.77 246.288 222.558 239.044 213.663 239.044C204.768 239.044 197.557 246.288 197.557 255.225C197.557 264.161 204.768 271.405 213.663 271.405Z" fill="#1A1A1A"/>
<path d="M213.73 266.467C219.919 266.439 224.914 261.376 224.885 255.159C224.857 248.943 219.817 243.926 213.628 243.954C207.439 243.982 202.445 249.045 202.473 255.262C202.501 261.478 207.541 266.495 213.73 266.467Z" fill="#9E9DA2"/>
<g style="mix-blend-mode:multiply" opacity="0.5">
<g style="mix-blend-mode:multiply" opacity="0.5">
<path d="M207.388 245.897C206.032 248.086 205.466 250.676 205.784 253.234C206.102 255.792 207.285 258.163 209.135 259.95C210.985 261.737 213.389 262.832 215.947 263.052C218.505 263.273 221.06 262.604 223.186 261.16C222.304 262.583 221.117 263.791 219.71 264.695C218.304 265.599 216.714 266.176 215.057 266.383C213.401 266.591 211.719 266.424 210.134 265.895C208.55 265.366 207.103 264.489 205.9 263.326C204.697 262.164 203.767 260.746 203.18 259.177C202.592 257.607 202.361 255.926 202.504 254.255C202.646 252.585 203.159 250.968 204.004 249.521C204.849 248.075 206.005 246.837 207.388 245.897Z" fill="#9E9DA2"/>
</g>
</g>
<path d="M221.15 255.239C221.163 251.081 217.818 247.7 213.678 247.687C209.539 247.674 206.172 251.034 206.159 255.192C206.146 259.349 209.492 262.73 213.631 262.744C217.771 262.757 221.137 259.397 221.15 255.239Z" fill="#D8D9DD"/>
<g style="mix-blend-mode:screen" opacity="0.3">
<g style="mix-blend-mode:screen" opacity="0.3">
<path d="M209.513 248.962C208.561 250.412 208.138 252.148 208.315 253.875C208.493 255.603 209.259 257.216 210.486 258.44C211.712 259.665 213.322 260.426 215.043 260.595C216.764 260.763 218.491 260.329 219.93 259.365C219.319 260.297 218.509 261.08 217.56 261.658C216.61 262.237 215.544 262.596 214.44 262.711C213.335 262.825 212.219 262.692 211.172 262.32C210.125 261.948 209.173 261.347 208.386 260.561C207.598 259.774 206.995 258.822 206.619 257.772C206.243 256.723 206.103 255.603 206.211 254.493C206.319 253.383 206.671 252.311 207.242 251.354C207.813 250.398 208.589 249.581 209.513 248.962Z" fill="#D8D9DD"/>
</g>
</g>
<path d="M213.64 250.921C214.102 250.921 214.475 250.545 214.475 250.082C214.475 249.619 214.102 249.244 213.64 249.244C213.179 249.244 212.806 249.619 212.806 250.082C212.806 250.545 213.179 250.921 213.64 250.921Z" fill="#9E9DA2"/>
<path d="M213.64 261.177C214.102 261.177 214.475 260.802 214.475 260.339C214.475 259.876 214.102 259.501 213.64 259.501C213.179 259.501 212.806 259.876 212.806 260.339C212.806 260.802 213.179 261.177 213.64 261.177Z" fill="#9E9DA2"/>
<path d="M208.538 256.073C208.703 256.072 208.864 256.022 209.001 255.929C209.137 255.836 209.244 255.704 209.306 255.551C209.368 255.398 209.384 255.229 209.351 255.067C209.318 254.904 209.238 254.755 209.12 254.639C209.003 254.522 208.854 254.443 208.692 254.411C208.53 254.38 208.362 254.397 208.21 254.461C208.058 254.525 207.928 254.633 207.837 254.772C207.746 254.91 207.698 255.072 207.698 255.238C207.699 255.348 207.721 255.457 207.763 255.559C207.806 255.66 207.868 255.752 207.946 255.83C208.024 255.908 208.116 255.969 208.218 256.011C208.319 256.052 208.428 256.073 208.538 256.073Z" fill="#9E9DA2"/>
<path d="M218.752 256.025C218.917 256.024 219.078 255.974 219.215 255.881C219.351 255.789 219.458 255.657 219.52 255.504C219.582 255.35 219.598 255.182 219.565 255.019C219.532 254.857 219.452 254.708 219.334 254.591C219.217 254.475 219.068 254.396 218.906 254.364C218.744 254.333 218.576 254.35 218.424 254.414C218.272 254.478 218.142 254.586 218.051 254.724C217.96 254.862 217.911 255.025 217.912 255.19C217.913 255.301 217.935 255.41 217.977 255.511C218.02 255.613 218.082 255.705 218.16 255.783C218.237 255.86 218.33 255.922 218.432 255.963C218.533 256.005 218.642 256.026 218.752 256.025Z" fill="#9E9DA2"/>
<path d="M210.638 259.444C210.755 259.327 210.834 259.177 210.866 259.015C210.899 258.852 210.882 258.683 210.819 258.53C210.756 258.377 210.649 258.246 210.511 258.154C210.374 258.062 210.213 258.013 210.048 258.013C209.883 258.013 209.721 258.062 209.584 258.154C209.447 258.246 209.34 258.377 209.276 258.53C209.213 258.683 209.197 258.852 209.229 259.015C209.261 259.177 209.341 259.327 209.457 259.444C209.535 259.522 209.627 259.583 209.728 259.626C209.829 259.668 209.938 259.689 210.048 259.689C210.157 259.689 210.266 259.668 210.367 259.626C210.469 259.583 210.561 259.522 210.638 259.444Z" fill="#9E9DA2"/>
<path d="M217.828 252.158C217.944 252.041 218.024 251.892 218.056 251.729C218.088 251.567 218.072 251.398 218.008 251.245C217.945 251.092 217.838 250.961 217.701 250.869C217.564 250.777 217.402 250.727 217.237 250.727C217.072 250.727 216.911 250.777 216.773 250.869C216.636 250.961 216.529 251.092 216.466 251.245C216.403 251.398 216.386 251.567 216.418 251.729C216.451 251.892 216.53 252.041 216.647 252.158C216.804 252.315 217.016 252.403 217.237 252.403C217.458 252.403 217.671 252.315 217.828 252.158Z" fill="#9E9DA2"/>
<path d="M217.855 258.224C217.738 258.107 217.589 258.027 217.427 257.995C217.266 257.963 217.098 257.98 216.945 258.043C216.793 258.107 216.663 258.214 216.571 258.352C216.48 258.49 216.431 258.652 216.431 258.817C216.431 258.983 216.48 259.145 216.571 259.283C216.663 259.421 216.793 259.528 216.945 259.592C217.098 259.655 217.266 259.672 217.427 259.64C217.589 259.608 217.738 259.528 217.855 259.411C218.012 259.254 218.1 259.04 218.1 258.817C218.1 258.595 218.012 258.381 217.855 258.224Z" fill="#9E9DA2"/>
<path d="M210.6 250.999C210.483 250.882 210.334 250.802 210.172 250.77C210.01 250.737 209.843 250.754 209.69 250.817C209.538 250.881 209.407 250.988 209.315 251.126C209.224 251.264 209.175 251.426 209.175 251.592C209.175 251.758 209.224 251.92 209.315 252.057C209.407 252.195 209.538 252.303 209.69 252.366C209.843 252.43 210.01 252.446 210.172 252.414C210.334 252.382 210.483 252.302 210.6 252.185C210.756 252.027 210.844 251.814 210.844 251.592C210.844 251.37 210.756 251.156 210.6 250.999Z" fill="#9E9DA2"/>
<path d="M179.261 207.639H217.916L288.144 222.231L328.773 209.51V227.424C324.626 225.165 319.921 224.145 315.214 224.484C310.508 224.823 305.996 226.507 302.212 229.337C298.427 232.168 295.528 236.026 293.856 240.457C292.185 244.887 291.81 249.706 292.776 254.344H233.666C233.299 249.269 231.032 244.523 227.322 241.058C223.612 237.593 218.733 235.667 213.666 235.667C208.599 235.667 203.72 237.593 200.01 241.058C196.3 244.523 194.033 249.269 193.666 254.344H186.427C185.011 254.35 183.607 254.075 182.296 253.535C180.986 252.995 179.795 252.201 178.791 251.197C177.787 250.193 176.991 249 176.448 247.687C175.904 246.373 175.625 244.965 175.625 243.542V211.291C175.625 210.322 176.008 209.394 176.69 208.709C177.372 208.024 178.297 207.639 179.261 207.639Z" fill="#FFB357"/>
<path d="M218.748 223.064H184.628V206.592C184.628 202.593 186.211 198.757 189.027 195.929C191.843 193.101 195.662 191.513 199.645 191.513H218.748V223.064Z" fill="#FFB357"/>
<path d="M193.798 257.415C194.387 257.415 194.951 257.18 195.367 256.762C195.783 256.345 196.017 255.778 196.017 255.187C196.08 250.536 197.964 246.096 201.262 242.829C204.56 239.562 209.006 237.73 213.639 237.73C218.271 237.73 222.717 239.562 226.015 242.829C229.313 246.096 231.197 250.536 231.26 255.187C231.26 255.48 231.318 255.769 231.429 256.04C231.541 256.31 231.704 256.556 231.91 256.762C232.116 256.969 232.361 257.133 232.63 257.245C232.899 257.357 233.188 257.415 233.479 257.415C233.77 257.415 234.059 257.357 234.328 257.245C234.597 257.133 234.842 256.969 235.048 256.762C235.254 256.556 235.417 256.31 235.529 256.04C235.64 255.769 235.697 255.48 235.697 255.187C235.697 242.973 225.802 233.036 213.637 233.036C201.472 233.036 191.578 242.973 191.578 255.187C191.579 255.778 191.813 256.345 192.229 256.763C192.645 257.18 193.21 257.415 193.798 257.415Z" fill="#F2932C"/>
<path d="M292.77 256.577H292.872C293.459 256.549 294.011 256.288 294.407 255.852C294.802 255.416 295.01 254.84 294.983 254.251C294.623 246.238 295.43 234.923 306.575 229.198C317.767 223.449 327.513 229.275 327.61 229.334C328.112 229.635 328.712 229.725 329.28 229.584C329.848 229.443 330.337 229.083 330.642 228.581C330.946 228.08 331.042 227.479 330.907 226.907C330.772 226.336 330.418 225.841 329.921 225.53C329.434 225.235 317.932 218.354 304.553 225.232C298.561 228.309 294.429 233.1 292.271 239.468C290.376 245.059 290.382 250.697 290.551 254.452C290.577 255.024 290.823 255.565 291.236 255.961C291.649 256.357 292.199 256.577 292.77 256.577Z" fill="#F2932C"/>
<path d="M184.627 207.641H218.738V206.67H184.627V207.641Z" fill="#F2932C"/>
<path d="M182.745 215.825H199.144V214.73H182.745V215.825Z" fill="#3A2645"/>
<path d="M182.745 219.264H199.144V218.17H182.745V219.264Z" fill="#3A2645"/>
<path d="M182.745 222.702H199.144V221.608H182.745V222.702Z" fill="#3A2645"/>
<path d="M182.745 226.142H199.144V225.048H182.745V226.142Z" fill="#3A2645"/>
<path d="M211.839 234.324H212.804V207.292H211.839V234.324Z" fill="#F2932C"/>
<path d="M244.085 246.046H286.008V219.264H284.368V244.405H244.684C244.137 242.764 242.329 238.058 238.35 233.416C233.882 228.21 225.732 222.163 212.286 222.874L212.372 224.505C222.604 223.957 230.921 227.298 237.07 234.43C241.683 239.78 243.289 245.382 243.304 245.439L243.466 246.038L244.085 246.046Z" fill="#F2932C"/>
<path d="M218.747 207.814L288.141 222.231L328.77 209.51L295.06 127.179C295.06 127.179 285.373 106.056 262.816 105.499C240.258 104.943 229.88 105.499 229.88 105.499C229.88 105.499 219.377 105.361 218.747 115.644C218.117 125.927 218.747 207.814 218.747 207.814ZM228.081 200.135L228.755 117.948C228.76 117.325 229.004 116.728 229.436 116.28C229.868 115.833 230.455 115.57 231.076 115.546C236.17 115.353 249.022 114.998 262.54 115.644C279.976 116.479 287.033 133.709 287.033 133.709L315.922 204.165C297.894 213.615 282.011 212.809 282.011 212.809L228.081 200.135Z" fill="#51435B"/>
<path d="M240.876 256.182H286.13C286.832 256.182 287.4 255.611 287.4 254.907V253.791C287.4 253.087 286.832 252.516 286.13 252.516H240.876C240.174 252.516 239.606 253.087 239.606 253.791V254.907C239.606 255.611 240.174 256.182 240.876 256.182Z" fill="#1A1A1A"/>
<path d="M222.734 216.217L215.815 216.236C215.683 216.237 215.576 216.344 215.577 216.477L215.579 217.196C215.579 217.328 215.686 217.436 215.818 217.435L222.737 217.416C222.869 217.415 222.975 217.308 222.975 217.175L222.973 216.456C222.973 216.324 222.865 216.217 222.734 216.217Z" fill="#1A1A1A"/>
<path d="M329.006 209.515H328.538V224.916H329.006V209.515Z" fill="#1D1D1B"/>
<path d="M218.7 208.042L218.515 208.005V207.815C218.515 207 217.893 125.804 218.515 115.631C219.15 105.242 229.778 105.261 229.867 105.266C229.957 105.271 240.513 104.715 262.822 105.266C274.552 105.557 282.75 111.472 287.563 116.384C292.773 121.703 295.248 127.029 295.276 127.091L328.986 209.428L329.084 209.665L288.211 222.458L288.152 222.476L218.7 208.042ZM294.849 127.277C294.824 127.223 292.377 121.96 287.215 116.701C282.465 111.855 274.375 106.02 262.808 105.734C240.52 105.185 229.992 105.734 229.874 105.734C228.064 105.781 226.281 106.19 224.63 106.936C221.134 108.557 219.233 111.493 218.978 115.658C218.37 125.578 218.944 203.208 218.978 207.621L288.128 221.99L328.457 209.368L294.849 127.277ZM282 213.047L282.023 212.579C282.185 212.579 297.939 213.261 315.624 204.056L286.821 133.799C286.803 133.757 285.021 129.467 281.136 125.134C277.563 121.148 271.443 116.306 262.524 115.879C248.964 115.226 236.016 115.595 231.081 115.781C230.52 115.801 229.988 116.038 229.597 116.442C229.206 116.846 228.986 117.386 228.982 117.95H228.516C228.518 117.263 228.785 116.604 229.261 116.111C229.736 115.618 230.384 115.329 231.068 115.306C236.01 115.119 248.972 114.755 262.551 115.404C271.646 115.838 277.872 120.768 281.5 124.826C285.425 129.218 287.231 133.571 287.249 133.613L316.217 204.275L316.029 204.374C300.518 212.504 286.424 213.062 282.861 213.062C282.32 213.062 282.021 213.049 282 213.047Z" fill="#1D1D1B"/>
<path d="M218.745 208.047V207.579L184.859 207.406C184.908 201.055 187.296 196.497 191.973 193.856C194.181 192.636 196.63 191.922 199.145 191.765L218.743 191.754V191.284L199.14 191.297C196.551 191.442 194.027 192.174 191.76 193.439C188.393 195.337 184.38 199.341 184.392 207.639V207.872L218.745 208.047Z" fill="#1D1D1B"/>
<path d="M185.673 254.629H185.688L191.832 254.58V254.352C191.832 254.235 192.117 242.516 201.442 236.818C210.766 231.12 219.416 234.029 219.502 234.06L219.664 233.617C219.577 233.586 210.732 230.589 201.206 236.417C192.39 241.799 191.473 252.423 191.382 254.116L185.697 254.161C181.492 253.703 178.561 251.78 176.981 248.443C176.261 246.897 175.878 245.215 175.858 243.508L175.889 210.829C176.284 207.871 179.137 207.872 179.258 207.874H184.627V207.404H179.267C179.237 207.404 175.873 207.395 175.431 210.784V210.813L175.399 243.5C175.399 243.593 175.196 253.497 185.668 254.628L185.673 254.629Z" fill="#1D1D1B"/>
<path d="M212.075 207.778H211.607V229.634H212.075V207.778Z" fill="#1D1D1B"/>
<path d="M293.554 236.922C295.464 232.682 298.799 228.998 303.195 226.264C307.083 223.849 313.703 221.644 320.629 222.701C326.974 223.669 330.2 225.963 330.232 225.994L330.507 225.614C330.372 225.517 327.167 223.224 320.7 222.238C313.648 221.161 306.908 223.405 302.95 225.865C298.474 228.647 295.078 232.405 293.129 236.73L293.554 236.922Z" fill="#1D1D1B"/>
<path d="M294.743 250.743H295.209C295.108 241.252 299.476 235.52 299.52 235.464C307.387 225.269 318.182 226.935 318.291 226.953L318.367 226.489C318.255 226.471 307.187 224.764 299.151 235.176C299.105 235.228 294.639 241.08 294.743 250.743Z" fill="#1D1D1B"/>
<path d="M244.896 244.638H284.601L284.623 221.505H284.155L284.134 244.17H244.896V244.638Z" fill="#1D1D1B"/>
<path d="M274.178 245.76L243.478 245.797L243.478 246.267L274.179 246.229L274.178 245.76Z" fill="#1D1D1B"/>
<path d="M345.841 252.439H346.309V195.249H332.859V195.719H345.841V252.439Z" fill="#1D1D1B"/>
<path d="M398.807 252.294H336.111V252.764H398.807V252.294Z" fill="#1D1D1B"/>
<path d="M280.927 171.141L290.524 154.761C290.764 154.351 290.628 153.823 290.22 153.582L289.573 153.2C289.165 152.959 288.639 153.095 288.399 153.505L278.802 169.886C278.562 170.296 278.698 170.823 279.106 171.065L279.753 171.447C280.161 171.688 280.687 171.551 280.927 171.141Z" fill="#1A1A1A"/>
<path d="M281.636 161.838C278.44 162.181 275.391 164.327 273.947 164.947L274.91 170.655C276.231 170.355 278.589 169.657 279.386 169.21C280.134 168.761 281.66 167.137 282.014 166.891C282.748 166.644 284.628 167.246 283.921 165.782C283.921 165.782 284.652 165.211 284.061 164.64C284.061 164.64 284.873 164.02 283.736 163.376C284.182 162.363 282.368 161.993 281.636 161.838Z" fill="#FE9F73"/>
<path d="M283.811 163.402C283.518 163.06 280.611 162.574 280.504 163.263C282.217 162.694 282.839 163.484 283.811 163.402Z" fill="#F07162"/>
<path d="M284.048 164.723C284.644 164.369 280.607 164.18 281.011 164.723C282.195 164.296 283.757 164.695 284.048 164.723Z" fill="#F07162"/>
<path d="M283.967 165.847C284.331 165.496 280.912 165.335 281.289 165.837C282.393 165.431 283.624 165.865 283.967 165.847Z" fill="#F07162"/>
<path d="M258.634 170.653L275.362 171.08C275.466 170.901 275.56 170.717 275.647 170.529C276.637 168.362 276.446 165.749 276.264 164.462C276.192 163.973 276.124 163.668 276.124 163.668L260.251 160.828L260.182 161.246L258.741 169.981L258.634 170.653Z" fill="#7FC6A6"/>
<path d="M275.363 171.198V170.965C266.54 170.813 249.61 170.399 248.684 169.914C247.581 169.335 246.506 163.717 246.826 157.987C247.134 152.486 247.599 150.105 247.602 150.082L247.373 150.037C247.373 150.059 246.902 152.454 246.594 157.974C246.29 163.422 247.271 169.438 248.577 170.121C249.79 170.758 274.314 171.18 275.363 171.198Z" fill="#1D1D1B"/>
<path d="M269.183 162.544L269.223 162.314L256.937 160.184H256.891L255.79 160.886L255.915 161.085L256.94 160.432L269.183 162.544Z" fill="#1D1D1B"/>
<path d="M256.797 160.32L257.024 160.269C256.537 158.087 256.251 154.434 256.25 154.398L256.016 154.417C256.019 154.456 256.308 158.128 256.797 160.32Z" fill="#1D1D1B"/>
<path d="M376.268 171.132L372.146 209.602L448.359 217.835L452.48 179.365L376.268 171.132Z" fill="#C19E7A"/>
<path d="M433.546 177.32L429.425 215.79L448.36 217.835L452.481 179.365L433.546 177.32Z" fill="#B58A64"/>
<path d="M399.807 173.677L398.596 184.986L406.195 185.807L407.406 174.498L399.807 173.677Z" fill="#FEC786"/>
<path d="M372.373 209.624L376.467 171.389L452.447 179.595L452.497 179.129L376.053 170.872L371.908 209.575L372.373 209.624Z" fill="#1D1D1B"/>
<path d="M387.217 210.994L387.167 211.461L439.453 217.109L439.503 216.642L387.217 210.994Z" fill="#1D1D1B"/>
<path d="M423.01 177.002L423.476 176.978L421.595 140.421L421.361 140.432L365.878 143.312L365.902 143.782L421.152 140.913L423.01 177.002Z" fill="#1D1D1B"/>
<path d="M425.238 215.309H424.771V240.189H425.238V215.309Z" fill="#1D1D1B"/>
<path d="M448.657 242.945L440.819 227.202L457.942 223.448L441.861 216.446L452.576 202.516L435.776 207.533L435.066 189.947L425.407 204.635L413.608 191.62L415.611 209.107L398.241 206.754L410.967 218.855L396.155 228.265L413.652 229.321L408.328 246.09L422.406 235.605L428.532 249.322L433.135 234.768L448.657 242.945Z" fill="#FFFEFF"/>
<path d="M494.058 180.041C494.063 180.069 494.077 180.095 494.097 180.115C494.117 180.135 494.143 180.148 494.17 180.153L496.014 180.466C496.158 180.488 496.288 180.564 496.379 180.679C496.469 180.794 496.513 180.939 496.501 181.084C496.493 181.161 496.47 181.235 496.432 181.302C496.395 181.369 496.344 181.428 496.283 181.475C496.222 181.522 496.153 181.555 496.079 181.574C496.004 181.593 495.927 181.597 495.851 181.585L495.596 181.543C494.585 181.371 493.551 181.386 492.545 181.587L489.058 182.28C488.895 181.391 488.827 180.881 488.541 177.55C488.413 177.239 488.348 176.836 488.467 176.67L490.914 173.979C490.957 173.918 491.012 173.867 491.075 173.828C491.138 173.788 491.208 173.762 491.281 173.75C491.355 173.738 491.429 173.741 491.501 173.758C491.574 173.775 491.642 173.806 491.702 173.85C491.823 173.937 491.905 174.07 491.929 174.218C491.953 174.366 491.917 174.517 491.83 174.639L491.142 176.123C491.832 176.012 496.16 174.956 496.16 174.956C496.234 174.933 496.312 174.926 496.388 174.935C496.465 174.944 496.539 174.968 496.606 175.007C496.673 175.046 496.731 175.098 496.777 175.161C496.823 175.223 496.856 175.294 496.873 175.37C496.902 175.513 496.876 175.662 496.801 175.787C496.726 175.912 496.607 176.004 496.467 176.045L493.674 176.888C493.64 176.898 493.611 176.92 493.594 176.951C493.576 176.981 493.57 177.017 493.578 177.051L493.602 177.196C493.605 177.215 493.611 177.233 493.621 177.248C493.631 177.264 493.644 177.278 493.659 177.289C493.674 177.299 493.691 177.307 493.709 177.311C493.728 177.314 493.746 177.314 493.764 177.311L496.865 176.802C496.941 176.79 497.018 176.793 497.093 176.812C497.168 176.831 497.237 176.866 497.298 176.913C497.359 176.96 497.41 177.019 497.447 177.087C497.484 177.154 497.507 177.229 497.515 177.306C497.525 177.451 497.481 177.595 497.391 177.709C497.301 177.824 497.171 177.9 497.027 177.922L493.942 178.428C493.923 178.43 493.906 178.437 493.89 178.447C493.874 178.457 493.861 178.469 493.85 178.485C493.84 178.5 493.832 178.517 493.829 178.536C493.825 178.554 493.825 178.573 493.829 178.591V178.638C493.835 178.67 493.851 178.698 493.875 178.719C493.899 178.74 493.929 178.752 493.961 178.752L496.772 178.85C496.933 178.861 497.085 178.925 497.205 179.031C497.326 179.137 497.408 179.281 497.44 179.439C497.455 179.509 497.453 179.582 497.435 179.651C497.416 179.72 497.382 179.784 497.335 179.837C497.287 179.891 497.228 179.933 497.162 179.959C497.095 179.985 497.024 179.995 496.953 179.989L494.192 179.894C494.173 179.894 494.155 179.898 494.138 179.906C494.121 179.914 494.106 179.925 494.094 179.939C494.081 179.952 494.072 179.968 494.066 179.986C494.06 180.004 494.057 180.022 494.058 180.041Z" fill="#FFB699"/>
<path d="M487.112 256.446L492.357 264.333L485.631 268.812L480.952 261.747L487.112 256.446Z" fill="#FFB699"/>
<path d="M486.797 271.16C486.773 271.176 486.747 271.187 486.719 271.192C486.69 271.198 486.662 271.197 486.634 271.191C486.606 271.186 486.579 271.174 486.556 271.158C486.532 271.142 486.512 271.121 486.497 271.097L485.925 270.205C485.882 270.133 485.868 270.047 485.886 269.965C485.904 269.883 485.953 269.811 486.022 269.764L491.973 265.919L492.719 261.758L498.799 261.507L499.75 260.894C499.905 260.786 500.094 260.736 500.282 260.752C500.471 260.769 500.648 260.851 500.782 260.985C500.865 261.071 500.927 261.174 500.964 261.286C501.002 261.399 501.014 261.519 501 261.637C500.985 261.755 500.945 261.869 500.882 261.969C500.818 262.07 500.733 262.155 500.633 262.218L486.797 271.16Z" fill="#FEC786"/>
<path d="M486.64 265.033C486.64 265.033 489.986 265.162 490.764 261.885L497.237 260.838C497.237 260.838 498.917 260.401 499.764 260.895L486.08 269.738L484.53 267.319C484.53 267.319 484.676 265.336 486.64 265.033Z" fill="#49263E"/>
<path d="M484.58 267.253L484.479 267.318L486.021 269.725L486.122 269.66L484.58 267.253Z" fill="black"/>
<path d="M486.642 264.973C487.627 264.991 488.589 264.672 489.369 264.067L489.447 264.156C489.351 264.235 489.25 264.309 489.144 264.376C488.397 264.858 487.525 265.107 486.637 265.092L486.642 264.973Z" fill="black"/>
<path d="M486.102 268.358L487.023 268.371L487.02 268.492L486.099 268.477L486.102 268.358Z" fill="black"/>
<path d="M486.488 267.938L487.408 267.951L487.405 268.071L486.484 268.057L486.488 267.938Z" fill="black"/>
<path d="M486.349 270.981L485.922 270.312C485.857 270.208 485.835 270.083 485.862 269.963C485.888 269.844 485.961 269.739 486.063 269.673L499.745 260.832C499.936 260.707 500.169 260.663 500.392 260.71C500.615 260.757 500.81 260.89 500.936 261.081C501.003 261.186 501.046 261.305 501.062 261.429C501.078 261.552 501.067 261.678 501.03 261.797L500.916 261.763C500.948 261.66 500.957 261.552 500.943 261.445C500.929 261.339 500.891 261.237 500.833 261.146C500.726 260.982 500.558 260.867 500.366 260.827C500.174 260.786 499.974 260.824 499.81 260.931L486.128 269.774C486.052 269.823 485.998 269.9 485.979 269.989C485.959 270.077 485.975 270.17 486.023 270.247L486.452 270.916L486.349 270.981Z" fill="black"/>
<path d="M497.851 260.784C496.551 261.011 490.83 261.939 490.771 261.947L490.755 261.83C490.812 261.82 496.54 260.894 497.831 260.665C499.122 260.437 499.78 260.817 499.809 260.828L499.744 260.931C499.744 260.931 499.114 260.558 497.851 260.784Z" fill="black"/>
<path d="M501.72 232.426L506.964 240.311L500.239 244.79L495.56 237.725L501.72 232.426Z" fill="#FFB699"/>
<path d="M501.404 247.139C501.381 247.154 501.354 247.165 501.326 247.171C501.298 247.176 501.269 247.176 501.241 247.17C501.213 247.165 501.187 247.153 501.163 247.137C501.14 247.121 501.12 247.101 501.104 247.077L500.532 246.183C500.51 246.148 500.495 246.108 500.487 246.067C500.48 246.026 500.481 245.984 500.49 245.943C500.499 245.902 500.516 245.864 500.54 245.83C500.564 245.795 500.595 245.766 500.63 245.744L506.581 241.897L507.326 237.736L513.407 237.487L514.357 236.872C514.513 236.766 514.701 236.717 514.889 236.733C515.078 236.75 515.254 236.831 515.39 236.963C515.472 237.049 515.534 237.152 515.572 237.265C515.609 237.377 515.621 237.497 515.607 237.615C515.593 237.733 515.552 237.847 515.489 237.947C515.425 238.048 515.341 238.133 515.24 238.196L501.404 247.139Z" fill="#FEC786"/>
<path d="M501.247 241.011C501.247 241.011 504.593 241.14 505.371 237.863L511.845 236.816C511.845 236.816 513.524 236.381 514.372 236.873L500.687 245.716L499.138 243.299C499.138 243.299 499.284 241.316 501.247 241.011Z" fill="#49263E"/>
<path d="M499.184 243.234L499.083 243.299L500.626 245.706L500.727 245.641L499.184 243.234Z" fill="black"/>
<path d="M501.249 240.951C502.234 240.97 503.196 240.651 503.976 240.046L504.054 240.135C503.958 240.214 503.857 240.287 503.752 240.354C503.005 240.836 502.132 241.086 501.244 241.071L501.249 240.951Z" fill="black"/>
<path d="M500.709 244.337L501.63 244.351L501.627 244.47L500.706 244.457L500.709 244.337Z" fill="black"/>
<path d="M501.094 243.916L502.015 243.93L502.012 244.05L501.091 244.036L501.094 243.916Z" fill="black"/>
<path d="M500.958 246.959L500.529 246.29C500.464 246.187 500.443 246.062 500.469 245.942C500.495 245.823 500.568 245.719 500.671 245.653L514.36 236.81C514.551 236.685 514.784 236.641 515.007 236.688C515.23 236.735 515.426 236.868 515.551 237.059C515.618 237.164 515.661 237.283 515.677 237.407C515.694 237.531 515.683 237.656 515.645 237.775L515.531 237.741C515.563 237.639 515.573 237.531 515.558 237.424C515.544 237.318 515.507 237.216 515.449 237.126C515.395 237.045 515.327 236.974 515.247 236.919C515.167 236.864 515.076 236.826 514.981 236.806C514.886 236.786 514.788 236.785 514.693 236.803C514.598 236.821 514.507 236.858 514.425 236.911L500.744 245.752C500.668 245.801 500.614 245.878 500.594 245.967C500.574 246.055 500.59 246.148 500.638 246.225L501.067 246.894L500.958 246.959Z" fill="black"/>
<path d="M512.458 236.759C511.159 236.988 505.437 237.914 505.379 237.922L505.362 237.805C505.419 237.795 511.147 236.869 512.439 236.642C513.73 236.415 514.388 236.792 514.417 236.805L514.352 236.906C514.352 236.906 513.722 236.536 512.458 236.759Z" fill="black"/>
<path d="M455.343 213.734C455.343 213.734 475.442 203.296 478.955 203.733C482.468 204.17 499.76 224.854 505.35 235.813C505.35 235.813 500.944 241.646 496.502 241.598C496.502 241.598 479.786 220.38 478.807 218.602C478.807 218.602 471.542 225.778 465.013 226.233C458.484 226.688 447.971 224.956 447.442 224.721C446.912 224.487 440.593 219.264 440.884 218.581C441.174 217.898 455.343 213.734 455.343 213.734Z" fill="#13222D"/>
<path d="M435.775 223.714C435.775 223.714 437.627 236.761 443.881 237.857C450.136 238.953 462.193 233.921 462.193 233.921C462.193 233.921 479.292 260.811 481.743 264.257C481.743 264.257 488.285 263.265 489.523 259.145C489.523 259.145 470.999 224.005 468.971 222.547C466.942 221.089 456.683 221.013 452.671 220.753C449.109 220.528 444.096 216.784 444.096 216.784L435.775 223.714Z" fill="#223749"/>
<path d="M447.112 178.951C446.578 179.065 446.031 179.096 445.488 179.043C443.539 178.853 442.639 177.289 442.548 176.544C442.457 175.799 443.281 172.354 443.281 172.354L443.388 170.634L444.253 164.009L451.031 166.475L450.472 172.238C450.472 172.238 450.365 174.196 448.643 174.272L448.708 178.133C448.729 179.109 448.064 178.749 447.112 178.951Z" fill="#FFB699"/>
<path d="M448.096 168.424C446.99 168.065 446.43 169.358 446.407 169.414C446.398 169.434 446.382 169.45 446.362 169.459C446.342 169.467 446.32 169.467 446.3 169.459C446.29 169.455 446.281 169.449 446.274 169.441C446.266 169.433 446.261 169.424 446.257 169.414C446.253 169.404 446.251 169.394 446.251 169.383C446.251 169.372 446.254 169.361 446.258 169.352C446.258 169.337 446.907 167.864 448.147 168.27C448.167 168.277 448.184 168.292 448.193 168.311C448.203 168.33 448.205 168.353 448.199 168.373C448.192 168.393 448.177 168.41 448.158 168.419C448.139 168.429 448.117 168.43 448.096 168.424Z" fill="#49263E"/>
<path d="M449.882 168.588C450.329 168.35 450.876 169.078 450.881 169.092C450.892 169.109 450.909 169.121 450.928 169.125C450.939 169.127 450.951 169.127 450.963 169.125C450.974 169.122 450.985 169.117 450.995 169.11C451.012 169.097 451.023 169.078 451.026 169.057C451.029 169.035 451.024 169.013 451.011 168.996C450.986 168.962 450.376 168.141 449.806 168.445C449.796 168.449 449.787 168.456 449.779 168.464C449.772 168.473 449.766 168.482 449.762 168.493C449.759 168.503 449.757 168.515 449.758 168.526C449.759 168.537 449.762 168.548 449.767 168.558C449.773 168.568 449.78 168.576 449.789 168.583C449.797 168.59 449.807 168.595 449.818 168.598C449.829 168.601 449.84 168.602 449.851 168.6C449.862 168.598 449.873 168.594 449.882 168.588Z" fill="#49263E"/>
<path d="M447.183 169.339C447.188 169.29 447.206 169.245 447.237 169.207C447.268 169.17 447.309 169.143 447.355 169.129C447.401 169.115 447.45 169.115 447.496 169.129C447.543 169.143 447.583 169.17 447.614 169.208C447.644 169.245 447.663 169.291 447.668 169.339C447.672 169.388 447.663 169.436 447.64 169.479C447.617 169.521 447.582 169.556 447.539 169.579C447.497 169.602 447.448 169.611 447.4 169.606C447.336 169.599 447.277 169.568 447.237 169.518C447.196 169.467 447.176 169.403 447.183 169.339Z" fill="black"/>
<path d="M449.784 169.347C449.788 169.299 449.807 169.253 449.838 169.216C449.868 169.178 449.909 169.151 449.955 169.137C450.001 169.123 450.05 169.123 450.096 169.137C450.143 169.151 450.184 169.178 450.214 169.215C450.245 169.253 450.264 169.298 450.268 169.346C450.273 169.394 450.264 169.443 450.241 169.486C450.219 169.528 450.184 169.563 450.141 169.586C450.099 169.609 450.051 169.619 450.003 169.614C449.971 169.611 449.94 169.602 449.911 169.587C449.883 169.572 449.858 169.552 449.837 169.527C449.817 169.502 449.802 169.473 449.792 169.442C449.783 169.411 449.78 169.379 449.784 169.347Z" fill="black"/>
<path d="M444.54 166.121L444.445 164.351C444.445 164.351 444.347 164.045 444.24 163.585C444.133 163.125 445.578 162.132 446.772 161.593C447.966 161.055 448.559 162.409 449.572 162.083C451.428 161.465 450.137 162.839 450.395 163.337C450.92 164.345 452.263 165.446 452.003 166.253C451.133 168.963 444.54 166.121 444.54 166.121Z" fill="#49263E"/>
<path d="M441.924 168.334C441.959 167.794 441.349 166.781 442.045 165.028C442.74 163.275 444.599 163.547 444.599 163.547L444.351 164.048L445.234 166.248L443.737 172.446C441.182 172.463 441.897 168.874 441.924 168.334Z" fill="#49263E"/>
<path d="M442.763 168.822C442.791 168.533 442.903 168.259 443.087 168.034C443.27 167.809 443.515 167.644 443.791 167.56C444.068 167.475 444.363 167.475 444.64 167.559C444.917 167.642 445.163 167.807 445.346 168.031C445.53 168.255 445.643 168.529 445.672 168.818C445.701 169.107 445.644 169.398 445.508 169.654C445.372 169.91 445.163 170.12 444.909 170.257C444.654 170.394 444.364 170.453 444.077 170.425C443.886 170.406 443.7 170.35 443.53 170.259C443.361 170.169 443.211 170.045 443.089 169.897C442.967 169.748 442.875 169.576 442.819 169.392C442.763 169.207 442.744 169.014 442.763 168.822Z" fill="#FFB699"/>
<path d="M443.652 168.3C443.647 168.301 443.641 168.301 443.636 168.3C443.631 168.299 443.626 168.297 443.621 168.294C443.617 168.292 443.613 168.288 443.61 168.283C443.607 168.279 443.605 168.274 443.603 168.269C443.602 168.264 443.602 168.258 443.603 168.253C443.604 168.247 443.606 168.242 443.609 168.238C443.611 168.233 443.615 168.229 443.62 168.226C443.624 168.223 443.629 168.221 443.634 168.22C443.876 168.169 444.127 168.211 444.339 168.337C444.43 168.403 444.506 168.488 444.562 168.586C444.618 168.684 444.653 168.792 444.664 168.905L444.685 169.05L444.592 168.937C444.503 168.828 444.38 168.751 444.242 168.72C444.104 168.689 443.96 168.704 443.832 168.765C443.735 168.816 443.657 168.899 443.612 168.999C443.566 169.1 443.555 169.213 443.581 169.321C443.597 169.435 443.651 169.54 443.733 169.621C443.815 169.702 443.921 169.753 444.035 169.768H444.043C444.054 169.768 444.065 169.772 444.072 169.78C444.08 169.787 444.084 169.798 444.084 169.808C444.084 169.819 444.08 169.83 444.072 169.837C444.065 169.845 444.054 169.849 444.043 169.849H444.034C443.903 169.832 443.781 169.773 443.686 169.681C443.591 169.588 443.529 169.468 443.508 169.337C443.476 169.211 443.488 169.078 443.541 168.959C443.595 168.841 443.686 168.744 443.801 168.685C443.924 168.624 444.062 168.601 444.198 168.619C444.333 168.637 444.461 168.695 444.563 168.786C444.528 168.629 444.436 168.491 444.305 168.398C444.107 168.284 443.874 168.249 443.652 168.3Z" fill="#F07162"/>
<path d="M444.866 172.225C445.959 174.538 448.64 174.266 448.64 174.266L448.687 176.205C444.663 175.504 444.866 172.225 444.866 172.225Z" fill="#F07162"/>
<path d="M449.163 168.861C449.168 168.86 449.174 168.861 449.179 168.863C449.184 168.865 449.189 168.867 449.193 168.871C449.197 168.875 449.2 168.879 449.202 168.884C449.204 168.889 449.205 168.894 449.205 168.9L449.278 170.908L448.377 171.111H448.364C448.355 171.111 448.347 171.107 448.34 171.101C448.334 171.095 448.33 171.087 448.328 171.079C448.327 171.074 448.327 171.068 448.328 171.063C448.329 171.057 448.331 171.052 448.333 171.048C448.336 171.043 448.34 171.039 448.344 171.036C448.349 171.033 448.354 171.031 448.359 171.03L449.195 170.841L449.124 168.902C449.124 168.891 449.128 168.881 449.135 168.873C449.143 168.866 449.153 168.861 449.163 168.861Z" fill="#F07162"/>
<path d="M448.693 172.161C448.77 171.962 448.731 171.762 448.607 171.713C448.482 171.665 448.319 171.786 448.242 171.985C448.165 172.184 448.204 172.385 448.328 172.434C448.453 172.482 448.616 172.36 448.693 172.161Z" fill="white"/>
<path d="M456.234 176.454C456.234 176.454 468.47 179.227 469.963 179.227C471.455 179.227 488.913 175.733 488.913 175.733C488.913 175.733 490.252 179.441 489.912 182.525C489.912 182.525 473.06 189.355 472.35 189.428C471.641 189.502 447.613 189.169 447.613 189.169L456.234 176.454Z" fill="#7FC6A6"/>
<path d="M397.979 153.427C397.959 153.45 397.932 153.465 397.903 153.471C397.874 153.477 397.843 153.473 397.816 153.46L396.124 152.689C395.992 152.627 395.841 152.617 395.703 152.663C395.564 152.708 395.448 152.804 395.377 152.932C395.341 153 395.319 153.075 395.312 153.152C395.306 153.229 395.316 153.307 395.341 153.38C395.366 153.454 395.406 153.521 395.458 153.578C395.51 153.635 395.573 153.681 395.643 153.713L395.879 153.82C396.814 154.243 397.665 154.833 398.39 155.562L400.904 158.089C401.529 157.436 401.87 157.053 403.952 154.447C404.232 154.261 404.508 153.957 404.501 153.758L403.96 150.154C403.958 150.08 403.941 150.007 403.911 149.939C403.88 149.871 403.837 149.81 403.783 149.759C403.729 149.708 403.665 149.668 403.596 149.642C403.527 149.616 403.453 149.604 403.379 149.606C403.229 149.611 403.088 149.676 402.985 149.786C402.883 149.895 402.828 150.041 402.833 150.192L402.583 151.808C402.072 151.332 399.06 148.032 399.06 148.032C399.011 147.973 398.95 147.924 398.882 147.889C398.813 147.853 398.738 147.833 398.661 147.828C398.584 147.823 398.507 147.834 398.434 147.86C398.361 147.886 398.295 147.927 398.239 147.98C398.135 148.083 398.073 148.221 398.066 148.367C398.059 148.513 398.108 148.656 398.201 148.768L400.049 151.023C400.071 151.048 400.084 151.081 400.084 151.114C400.084 151.147 400.071 151.179 400.049 151.204L399.949 151.312C399.936 151.325 399.921 151.335 399.904 151.342C399.888 151.349 399.87 151.352 399.852 151.352C399.834 151.352 399.816 151.349 399.8 151.342C399.783 151.335 399.768 151.325 399.756 151.312L397.462 149.158C397.406 149.105 397.339 149.064 397.267 149.038C397.194 149.012 397.116 149.001 397.039 149.006C396.962 149.011 396.887 149.032 396.819 149.068C396.75 149.104 396.689 149.153 396.64 149.213C396.551 149.328 396.508 149.473 396.521 149.618C396.533 149.764 396.6 149.899 396.707 149.998L398.981 152.139C399.006 152.165 399.02 152.2 399.02 152.236C399.02 152.272 399.006 152.307 398.981 152.333L398.948 152.367C398.927 152.39 398.898 152.405 398.866 152.409C398.835 152.413 398.803 152.407 398.776 152.39L396.387 150.899C396.248 150.819 396.086 150.787 395.927 150.808C395.767 150.828 395.619 150.901 395.505 151.015C395.454 151.065 395.416 151.126 395.393 151.193C395.37 151.261 395.363 151.332 395.372 151.403C395.381 151.474 395.407 151.541 395.446 151.6C395.486 151.659 395.539 151.708 395.601 151.743L397.945 153.21C397.963 153.22 397.98 153.235 397.992 153.252C398.004 153.269 398.013 153.289 398.016 153.31C398.019 153.331 398.018 153.353 398.011 153.373C398.005 153.394 397.994 153.412 397.979 153.427Z" fill="#FFB699"/>
<path d="M436.575 176.821C436.575 176.821 424.87 172.292 423.634 171.449C422.398 170.606 405.073 153.173 405.073 153.173C405.073 153.173 401.081 154.59 399.655 157.342C399.655 157.342 415.448 178.133 415.997 178.591C416.546 179.049 436.693 192.201 436.693 192.201L436.575 176.821Z" fill="#7FC6A6"/>
<path d="M434.222 176.071C434.222 176.071 432.645 177.865 430.865 182.089C429.241 185.953 429.743 192.79 429.923 197.554C430.3 207.528 435.77 223.714 435.77 223.714L455.338 213.734C455.338 213.734 452.911 205.649 455.377 194.293C457.586 184.126 456.257 176.472 456.257 176.472C456.257 176.472 445.068 176.19 434.222 176.071Z" fill="#7FC6A6"/>
<path d="M416.797 179.039L416.717 179.162L431.507 188.94L431.587 188.817L416.797 179.039Z" fill="#1D1D1B"/>
<path d="M431.225 207.344C429.201 199.1 429.706 187.84 429.711 187.726H429.859C429.859 187.838 429.349 199.077 431.367 207.297L431.225 207.344Z" fill="#1D1D1B"/>
<path d="M439.984 176.221L434.546 176.109H434.535C434.119 175.945 424.373 171.927 423.6 171.519C422.827 171.111 410.306 158.548 409.773 158.014L409.877 157.909C410.009 158.04 422.908 170.987 423.668 171.389C424.428 171.79 434.166 175.792 434.577 175.967L439.987 176.079L439.984 176.221Z" fill="#1D1D1B"/>
<path d="M454.776 211.487C454.76 211.407 453.199 203.441 455.101 195.252C457.005 187.098 456.457 178.85 456.451 178.769L456.597 178.759C456.597 178.84 457.152 187.103 455.244 195.287C453.342 203.441 454.896 211.377 454.919 211.457L454.776 211.487Z" fill="#1D1D1B"/>
<path d="M470.659 180.703L469.915 179.287L456.249 176.544L451.661 176.44L451.664 176.291L456.266 176.399L470.012 179.157L470.788 180.634L470.659 180.703Z" fill="#1D1D1B"/>
<path d="M488.894 175.693L469.943 179.183L469.97 179.327L488.921 175.838L488.894 175.693Z" fill="#1D1D1B"/>
<path d="M476.942 235.963C475.305 232.99 469.655 223.276 468.92 222.604C468.186 221.933 463.969 221.484 462.694 221.362C461.456 221.244 452.273 220.789 452.181 220.784V220.638C452.273 220.638 461.461 221.098 462.7 221.215C464.35 221.378 468.266 221.81 469.013 222.495C469.791 223.206 475.672 233.351 477.065 235.892L476.942 235.963Z" fill="#1D1D1B"/>
<path d="M447.858 237.935C445.217 238.211 443.698 238.028 442.288 237.366C440.442 236.498 438.699 233.31 438.626 233.175L438.756 233.103C438.774 233.137 440.542 236.384 442.35 237.232C444.158 238.08 446.167 238.126 450.604 237.41C454.81 236.733 461.679 234.045 462.135 233.863L463.586 231.263L463.714 231.336L462.238 233.98L462.213 233.99C462.142 234.018 454.97 236.855 450.62 237.557C449.581 237.725 448.666 237.852 447.858 237.935Z" fill="#1D1D1B"/>
<path d="M462.251 233.86L462.128 233.939L481.679 264.275L481.801 264.196L462.251 233.86Z" fill="#1D1D1B"/>
<path d="M470.414 224.687L470.349 224.555C470.397 224.532 475.252 222.117 478.742 218.558L479.835 214.598L479.976 214.637L478.874 218.633L478.861 218.648C475.351 222.231 470.462 224.664 470.414 224.687Z" fill="#1D1D1B"/>
<path d="M496.444 241.644C495.751 240.758 479.464 219.953 478.741 218.632L478.87 218.56C479.586 219.865 496.387 241.336 496.558 241.556L496.444 241.644Z" fill="#1D1D1B"/>
<path d="M445.876 165.63L451.481 166.259L452.081 165.967C452.081 165.967 452.179 162.647 450.124 161.049C448.07 159.45 444.877 160.098 443.427 161.238C441.976 162.378 441.111 166.067 441.603 167.068L443.238 165.976L445.876 165.63Z" fill="#F7AB47"/>
<path d="M446.809 166.091C448.818 166.283 450.795 166.729 452.692 167.419C452.726 167.425 452.761 167.421 452.792 167.406C452.823 167.391 452.848 167.367 452.864 167.337C452.881 167.306 452.887 167.272 452.883 167.238C452.878 167.204 452.863 167.172 452.84 167.147L452.081 165.967C448.903 164.695 445.577 165.046 443.776 165.385C441.799 165.755 441.603 167.068 441.603 167.068C441.603 167.068 443.297 165.757 446.809 166.091Z" fill="#F99926"/>
<path d="M447.236 161.269C447.668 162.368 447.593 165.072 447.593 165.072L448.774 165.142C448.774 165.142 449.469 161.298 447.942 160.134C446.415 158.969 445.993 160.219 445.993 160.219C445.993 160.219 446.784 160.117 447.236 161.269Z" fill="#F9B767"/>
<path d="M258.822 133.458L264.084 133.675L264.627 133.362C264.627 133.362 264.5 130.263 262.481 128.91C260.462 127.556 257.531 128.37 256.253 129.528C254.974 130.686 254.411 134.178 254.935 135.073L256.387 133.948L258.822 133.458Z" fill="#F7AB47"/>
<path d="M259.722 133.827C261.606 133.872 263.477 134.157 265.289 134.675C265.322 134.682 265.357 134.678 265.387 134.663C265.418 134.648 265.442 134.623 265.456 134.592C265.47 134.561 265.473 134.526 265.465 134.493C265.456 134.46 265.437 134.431 265.41 134.411L264.627 133.362C261.583 132.384 258.505 132.933 256.85 133.362C255.033 133.838 254.936 135.075 254.936 135.075C254.936 135.075 256.43 133.745 259.722 133.827Z" fill="#F99926"/>
<path d="M259.805 129.306C260.278 130.301 260.385 132.826 260.385 132.826L261.491 132.812C261.491 132.812 261.887 129.185 260.39 128.2C258.892 127.215 258.572 128.409 258.572 128.409C258.572 128.409 259.308 128.264 259.805 129.306Z" fill="#F9B767"/>
</g>
<defs>
<clipPath id="clip0_69_197">
<rect width="666" height="273" fill="white"/>
</clipPath>
</defs>
</svg>
